<mxfile host="app.diagrams.net" modified="2023-07-30T12:56:16.706Z" agent="Mozilla/5.0 (X11; Linux x86_64; rv:109.0) Gecko/20100101 Firefox/110.0" etag="U5x-JKS0EidMmRnpqZP1" version="21.6.1" type="device">
  <diagram name="Page-1" id="_0D8t-_J9UfE9c52sLAU">
    <mxGraphModel dx="1402" dy="730" grid="1" gridSize="10" guides="1" tooltips="1" connect="1" arrows="1" fold="1" page="1" pageScale="1" pageWidth="850" pageHeight="1100" math="0" shadow="0">
      <root>
        <mxCell id="0" />
        <mxCell id="1" parent="0" />
        <mxCell id="mlgXHm7Zvc4TcIgTKmac-1" value="" style="shape=image;verticalLabelPosition=bottom;labelBackgroundColor=default;verticalAlign=top;aspect=fixed;imageAspect=0;image=data:image/png,iVBORw0KGgoAAAANSUhEUgAAAgAAAAIACAMAAADDpiTIAAADAFBMVEUAAAAAAAAAAAAAAAAAAAAAAAAAAAAAAAAAAAAAAAAAAAAAAAAAAAAAAAAAAAAAAAAAAAAAAAAAAAAAAAAAAAAAAAAAAAAAAAAAAAAAAAAAAAAAAAAAAAAAAAAAAAAAAAAAAAAAAAAAAAAAAAAAAAAAAAAAAAAAAAAAAAAAAAAAAAAAAAAAAAAAAAAAAAAAAAAAAAAAAAAAAAAAAAAAAAAAAAAAAAAAAAAAAAAAAAAAAAAAAAAAAAAAAAAAAAAAAAAAAAAAAAAAAAAAAAAAAAAAAAAAAAAAAAAAAAAAAAAAAAAAAAAAAAAAAAAAAAAAAAAAAAAAAAAAAAAAAAAAAAAAAAAAAAAAAAAAAAAAAAAAAAAAAAAAAAAAAAAAAAAAAAAAAAAAAAAAAAAAAAAAAAAAAAAAAAAAAAAAAAAAAAAAAAAAAAAAAAAAAAAAAAAAAAAAAAAAAAAAAAAAAAAAAAAAAAAAAAAAAAAAAAAAAAAAAAAAAAAAAAAAAAAAAAAAAAAAAAAAAAAAAAAAAAAAAAAAAAAAAAAAAAAAAAAAAAAAAAAAAAAAAAAAAAAAAAAAAAAAAAAAAAAAAAAAAAAAAAAAAAAAAAAAAAAAAAAAAAAAAAAAAAAAAAAAAAAAAAAAAAAAAAAAAAAAAAAAAAAAAAAAAAAAAAAAAAAAAAAAAAAAAAAAAAAAAAAAAAAAAAAAAAAAAAAAAAAAAAAAAAAAAAAAAAAAAAAAAAAAAAAAAAAAAAAAAAAAAAAAAAAAAAAAAAAAAAAAAAAAAAAAAAAAAAAAAAAAAAAAAAAAAAAAAAAAAAAAAAAAAAAAAAAAAAAAAAAAAAAAAAAAAAAAAAAAAAAAAAAAAAAAAAAAAAAAAAAAAAAAAAAAAAAAAAAAAAAAAAAAAAAAAAAAAAAAAAAAAAAAAAAAAAAAAAAAAAAAAAAAAAAAAAAAAAAAAAAAAAAAAAAAAAAAAAAAAAAAAAAAAAAAAAAAAAAAAAAAAAAAAAAAAAAAAAAAAAAAAAAAAAAAAACzMPSIAAAA/3RSTlMAAREfKjVEUkxBMyUZDQY2XYSq0PbrxZ13USYDs/Hpb0+s8uKRNCuI14AiBFzT/bY9XtnETWzkzUrKIQhZ7Dn7ArwY8/75V4lym7CXhmtgVfok6hsHwZNHDuYPlIwy/C/H+NKrlXl/irnfw2ExDEhf3W0UMI/wThB97WZQqBI+41bI92m4mOiQQkCf2C31LhV+aN6vVMJY1QvcYkN2HaTAu8t7CjocZCmylnwTIK5LKIV057Q/khamBcxJW3FGnvSxo26lgdTgCXBjGoKON7rhoe9zz3WnJ5mL1mfbF+XGnDvaosksWrdqU+7OeHqg0R6DRYdlqb84tb69ja0jPJo5LvvoAAAhsElEQVR42u2dd2AVRdfGc0GKIEFCEQhNegiEIr14r5AACkqkEzAQikpTOgakRSkS4AUbEeUVCApIkyK9g4CgFBEBRV9EkRc/FQFF/UT3S+ATc5N7z5mZnb3nbvb8/s8zO+c52bs7O3NOSAjDMAzDMAzDMAzDMAzDMAzDMAzDMAzDMAzDMAzDMAzDMAzDMAzDMAzDMAzDMAzDMAzDMAzDMAzDMAzDMAzDMIw5XDly3pErd568d+bLf1cB6othAklowbsLhRUuYmSgaLF7ipcoSX1hjPWE5yteqrThhzJhZfNRXyBjIaHl7i1vIFSoWIn6MhlrqFylDOb+LapGVKO+VkY3kdVriLl/k6iatagvmNFJaO06Evbf5L66LuqrZjQRWa++rP3pNGhIfeGMFio1UrE/nVKNqa+dMU2OilGq/htGkYgm1NfPmKNpM3X706lzP/UMGBM0qWjO/jTcER7qWTCqlCxs2v80HmhOPQ9GjaYtdPhvGPVrUc+EUaFstB7/DSOmJfVcGGlcrXTZn0Z0a+rpMJKEP6jR/zSq8LqgrYh8SK//htGGM8BGuO7R7b9htKWeFCOOzt//2/BzgG142Ar/jehHqOfFiNHOxOo/RGxu6pkxIjxa2rzXvmnfgXpuDE7HBlb5bxidIqlnx6B0ts5/wyhEPTsGo4S2BWBfRHWhnh8D07Wblf4bRrc46hkyIN2t9d8welDPkIF4LN7qBHD3pJ4j4x9PLwkrE3r36Vul3+NPPPhkf5nnhgH8USB4GSjqYkzN1oM8//zd4Kda9RbOgKepZ8n4I3KImIW9hw7L+sfDR4wU++shvBgQrFQXMrDRKD838dHPJAoJ1KaeJ+Mbl8jxv8QxwG+42CGCqh7qmTI+GStg3rPjYI3xEwREJlLPlPHJJNS5pOdQkWHP4wlQmHqmjC/uQI0bWUtAJnwyngG5qOfK+KAKZtuU4UI6rrZoAnSmniuTFU8FxLXSg0SlpmIJ0CyUerZMFqYhpiW8ICzluRfLgHLUs2WyMB3xbKiE1uBkROxe6tkymXEVhS0rJbWEPyMJVpvZkXq+TCZmwY4l/ktObjZyCxhPPV8mE2Vhw+ZIyjV5EdaLoJ4vk4mXQL96h8vqvQwnwCvU82W88cClYF6VF5wLCsakUM+Y8QJ+BHhN+gYQEjIPvgW8Tj1jxouWoFtvKCg2gbcH1KOeMeMF+NQeNV9FEl5Y4NXg4OLfkFlvKkl2ARNgAfWMGS8WQmYtUpJMTYA0K1DPmPEC/MFerKY5ANKMHkw9ZSYDcZBXsYrf7uAyE3dQz5nJwFuQVcmKom+DCcCLwcHEEsiqpYqi48EEKEE9ZyYDuSCrlimKNgYTgM+HBBPgbpBWiqLDwAQYQz1nJgOjIKueURTtCCYALwUGE+CRgHcURUM5AWwDuGpXRVF0OZgAA6nnzGSgFmRVd0XRFWACTKSeM5OBfJBVKxVFF4MJsIp6zkwGVkNWzVUUfRpMgDup58xkYDRkVYLCdpB03gUTYDX1nJmMgNVBFdtBPwBpRqdST5nJCFgaYI2SZOhMSHMt9YwZL9ZBZj2vJLke/AWYRD1jxov3ILPcG1Qkl4EJsJF6xowXcH0wmXOBf7MJPmvG7SOCC3hbeA2F2n4TQUWjFvWMGS/CwSc2o6684mZQMJ4PhgQZcI3QSdK3gC3wDaA39XyZTCB9orZKykUilUMrUs+XycQLsGFTJMu8b4PljO3U82UysQkp9LpDSg3rO7SzCfV8mcysRP5n75bQQvsO7aKeLZOFRxDPWjwmroU2Hp5HPVsmC4NbIKa1LykqhdWHMXYWoJ4tk5XdmG1DGosJ7UH7R0zXdMmuFduHvrd31wObk4fU2fzAro2dyz5VTfHbNROSG7PN6DZDRGcfqqNlGbDD3dMLF/GhnfD+7nmCmcp44dmPGjcyD6qSgt5IDCPZbNeYAy+3qQOOsH/61q7U8bQfB3Hroqci72+V38dFjA9MXaZr/T0izW2LbNzCrUnkGCzS8OO1pwCF1LYxAhITzFQKPnS4v8AQt1j74aPUMbUXh4XCuu4jP38eOgb/EUmnrPoVNp6cIDTE38RvFHpsYW6xYadYWI+87OOHoEPxo2J/XUZ5N+CSY24p+9OJ3vWR6nAO5HHRsB7fsfWuDH/n6tl6gXDLSdVToeMmizQk8kHYW9RxtQ0p9SXiuv9I535DB475+PHpk45L/NkJtRd118D2avan0eKTTdSRtQvYerAG1CqDzLrP1KBzxZsdOBtPI6v9P6lyWa6DIm8XENFV+J1QiCVJJiON0F5lg3FcmIaRG/HyoBD9rE0AfCkxK5UEO9oijGxHHVtbEGnpj4DKV6APYjUNHs1NCkT4VGSdVZE6khvL0ukn05se4RR/KhRglMaIe1O+svTFuE5rvYKHDlBH1w7gjR/ViBolfSmb9mq+hldGU0fXBoQLtP9VQb7YlOdZ7RdRjI+l46QWs8L/vvIXgrYgVWAdrwriLD+jP/C7PdKXge4tVOLf8hfiPOZjjYSlWSm/EveZJf4bRg/q6NqBxp/rDfpJ+U0gdwp/X5SFyxQLcPaEzpB390hfwIYvrPLf2Cn/OupAcnypLeDRCj1nPEcs898w5vLhdAE6/kdTuFu0VBj9GQv95wI1gtTTsgqfrNIc5pxlDwC3aEodW3tQS8PvcB+VDfqbapgfGGQtrwgKEXfKZKCPq+0AXGOx/4bxHnVo7UJDUzeBUoeUBn0LO6hqnqiC1JG1C8OWuVWD/NVYxTH7SAxSetL52UM/aDdv6Oxjk2S+ZH/toY6sbfhG7Y0ssazqCaDxokNED1iTK+Mn/vCCxYsJf8y+QB1XG9Gwl2hUb3O8bQ7l4QQTbsrsFT7++NHDRcX+/H0PdVjtxAvfStl/dJuJEhC5hIaof9Hf5o6Ug2uFFP5LHVR7MbzvJUH342u2NPXJ9SGBMWJaQb2H494TWUb4zuwpdafRpOWTAmE90/ouc8PMEPgVPzMLESkospOYu9bIMkwgqqY3X0/HxziGr+XH3YvLLKCOp+0IRAKklEeHEOpj52qF6kTNpw6o3QhEAlRHRxAtXv8/qFJx6oDajUAkAPoO+L2wFLq9WbUfmmMJQAJ0wJ7fJfaWun7ALjYfdURtRgASAPsM9LXM8uKBHxG109QRtRkBSADkF6C03BnfT3fCcieoI2ozrE+AUMSxPZJ6xWG5qGHUIbUX1icA8h3oO9nTnZuQuoW8HCyF9QmAlKl6SlowLyyocFzJyVifAJ1A7Qbygi54e3tV6pDaC8sTwFME1H5VQbIpqBjNG8RlsDwBVoDSI1VO9zeBa9gNp46prbA8AbqA0pOVNOF9rSpnFpyL5QmwB5TeoqS5HdR8nDqmtsLyBOgLKbvVdhmlgvWl+YyQDJYnwAJIuZei6CuQ6GbqmNoKyxMA7Dd6SlG0MyQ6gTqmtsLyBHgRUlbtOF8PEi1CHVNbYXkCgBXByymKwq8WXDhOAssTAHxeU6szjm0zVz++4ECsToBIUFmidakXq0HVs9RBtRNWJ8BoUHmJouplUJU3hkpgdQKk8h0guLE6AVzghkDVZ4CC4PXyM4AElj8Egh9uyimK8luANixPgAmQ8seKokMh0ZnUMbUVlidAVUjZkpXAo9QxtRWWJwBYm7CXougASHQhdUxtRU+BBOh82cQAYHn42MFKmilgx7G91DG1DZ772wrWbjvxU0GP4iDwYS75LaHpwPsBZlPH1R54rkyXatxZ/+pqpXGugaptlDQng5q8I0iAQ4vAr3S+6TVHoRZjblAysaPCxYcmgpo9qYMb9Lga7nLL259Oi6nSvRqrwYoqxzheBhWjuIMMjCvPd2ru3yT+Z8lyjKuQu4rCDL4GFfmAOIinbgMT9t9kgcQKfn60Rax8D+grsCBXjIVYpaN1UNTeamKjxfXAO0QXky3s5VkIC5agjnEQU22pBvvTiZkqUDA8/FoZEa1HJCeB9B2K509B/jgQobGP+Bfo09t6wQ41Zf4lNYtD8CsA7wn2yzSFFz+IUjmh0VaIV4euKfMjEP4LonaVOs5BSujpKL3+p70TDvQ7WkohmZuNTGWvw5gYVm/Soaw2/ezvi3t9/9662h2Vkom+W3geW7Gao1whxicXiwg5Ic2L130Mdn2SrEzC64LzyIu2PFI9aZCtCd1hjf1pxM7JPFiH3Qq96pPKCU3kAuq/uzl1sIOQ5W9a5n8aU71q/Bx4Z6eSivszfB6uNfhjzK/UwQ5CHk220n/DeDLun7Hqqr9p7Ma2BnRFFxXTEP0tcRB3HheImyl6/33bHdTJjEydaeA8VvUX0PiSOtrBx3aLHv8yktwhfaQND5p90dy7wu808guUik+jIXW4g44tGhf//PNazpDQNSPN68Tu8L3p5JvdYl1HG3DDkEysShAKnGn2D/xKk9KXz2V+ju9Qr5HoH/N3oEzUxT/GBSFzO18b3zy9gHTH5uuvdZf4fPkb3wC8uR6A33/LiLkkm70xqkdNsysrplCbGFjepQ54kNHV6nbdQcZRrhDqxabfqR0JLNH8CujNMmpHAsz/Ugc8yMhDbUiAkeo74wDmJ5qPqZ24tMJ8zLITkfdROxJYorllrDc/KYXx0qRjIwoVn7OnX5W+f7wfoDVEPWyjDniQUUls6TwDMa9ETPPenRt+o90yiz8ka4M3gnoTvlAufkVO5vVznu7QxV7U5grwH14C9uaiVPgavB0HiZUsVJTaYISVsn3HsjtnL0lE77666L9PStkJ1B5D/NGEOuDBxm7x4BVeL6TYcY/l24qUGeGhjnewUVB4V27pg5Gios1V9vr6ptmcjfrsj15DHe7go6Zo8GoekpGdNkGLY/HLxoW4FunKpqSt1NEOPq4Lxs4d4ZETXr5Og2MLP7qptaq0Fv+TuUNcVp4Xi92ExdLKrjeklxcysbb230+cPXUsMfygVmQue7NYLHZnlEqqlzC1xTT2wwxFBQ6MMLuHuEVt6lgHJd8KBa/XcjX19Sa2/v5e2Vtr/BBT/v9hpnpl9uWG0P/VL8qbZ4bLrDFkpMLELFqDe6h/b6iznTrSQUoVkeidiFMf4E+ljaYJbX2m3Iq9ar8D5fvx13/fhIrsA33N1AnaUW55w37N70/tsQXyas1mj6OOc9AyUSB+I/ObG6OewBheDBkFyT02Xe6H4IvW/OzvnwcEImiq+Hs6Iqd0/2HmbGytfsM79UXF3DUvqNSWdQwdBFbY+poeJe41Cf//yCmgGD6+YgUBrYVluR0UzBw8iDU0fDsT329S9YqopuujqwOgVYa1G6/doA5v8IMvAkTX0jFORTH7y38i97Aeen1bWO+dWb1/86+LfOpLhK7449R0LQPFdROwP3qv1Mem22y4fuHjd6r0vSfs5Km+hw9eqCRQk5S5RTvUlEtyVTn9shX3v4JqT0BGmX+jrszWNJKrNzrUd9TRcCDo21RpbYWUm6IJEMOLdYFmPmqKvu3T4XXQwWZQx8NxvIxZEqvxNXoMmgDVqePhOE5jluzSOFgc+lGoFXU8HMcAzJKXdY72LDbaH9TxcBqRMxFHLmldRl+FJcCP1AFxGjcwR45pHW4Ttq9zJx/YCixXsAR4Wu946Cbhu6gj4jDQ53LNm+haY+PdTx0Rh3EV8eNzzeMNwhKA63YGFuyxXHdXdQ/2IijQAoDRCFZR9xndA2LfA7QPyIDsR/yYqHtArDFcZ+qIOIz2iB/az9EVCvBvDgODrQNp30uNvXaspI6Is3BhG0I36R4R+yTMDZwCSgpiR5L2EbHF4N+pQ+IsNiB2FNU+4nhkxGLUIXEWbyF21Nc+YkFkxEbUIXEWyxE7LmkfcRoy4ivUIXEWTRA73NpHLIeMeIQ6JA4DO66jvZxedWTAXdQRcRjlET+0t1XGjgn/TB0Rh7EW8eOc7gFHIAPuoI6Iw/gc8WOe7gFrIgO2pY6Iw3gT8UP7Ll2sU/jD1BFxGDsQP5ZqHi8Ve+rMQx0RhzEb8SPRo3c8dA/ideqIOAzsrcwYpHe8tth4Hagj4jDOYYZ8rHe8SdgdhzogTuMQlgDPax0uhxsZrhN1QBwHViPQrXUp6DMs396jjofjKIVZUlbnaGhnwmvU8XAcizBLGmgc7AZakS4fdTwcR27MEuMxfYOh7wC63zoZlK5o5eU+2saKQ7tI8enwwPM+ZkqUtnJ7z6B3m4vU0XAg2Oc5wzivaaTBzdChVlNHw4G8gLoS9ZGekVqhIxm/zaIOh/OITERtWejRMdAdMXgCGO73VI+ieJZXm1Ewd8PclVbPz8FVJmQ4j9ui46fZ9ZuA/2k0e062q++B8fVGlDqTseJtbJ2lp6+tH00dWZuAFoozjOMrzA9zTcz/NAq/IK46bmyPL2P96MRvPt2wAHV0bcBggYY+k0wfEZsh0zYoTKRfQJr7A2vGIkruYns0VTrOxgj8Bhj/a3KMwVUl/DeMIvtSMcXIiaj7t4gtNZFbhYP8KRDFaHM9Yzw/S/mfRoWW4JPcuOIi3UL+5vgT2nc3ZyvQtaA0EiR+mLOCLzZkpZP/2gTz22DH2jOT1FfDY0y2ZY9ICEubqBXxhoL/aQ9xk4f5VIu7qtKGMPYHsQcLJ5JDKKBTlBdpHlZt/H6pbNaHz9CD+IKib2Z+z8Xo/XBKKIDHFdt5HFY0LJ25mRtI5RL5vfJHsnA7KoexQmSRLu2HdKyCdvhfJhxL46GMfb86tnWbU3uW+4f6ROwWYEQdll2lC7nrF3OOpT1+Xr3d9TOfmX//WxzlUqS+uCx2CzCMNyWbet0p0ioMo9sYz02x6ko9qDPhjvBQRzsYmSwavzItJVQH91Br9J2FXrlCQjZ116Nl1FxOHe0g5HKScPwWfCoq+vIETZal/fjsmNVJm1hVfiHMyuPi8UvoIbSudv2INsd0U/8b6nAHHx2TJQIYcx5tyfsnut+cEtU32uxMF6kIxqwcC6yqnC3bgNpihKQt1PEOPrAyzplptqyczy0XN66tc1P7izNzMXW8g463sH4+WYlvdPqR6/8srbhyXqk3/Si1tYIkVqYOeNAh0NzZJ+2/2vz70m8HnBii4zU9cNTnd4HM/EDtSWBJ5k2DmUiReRPIBizl3cOZeCzBfFTthNaTz9mCodSWBJaYgtQBDzr6UnsSWPrnoA54sBG+i9qTwPIgdcCDjgInqD0JKNG8HpSZQzL7re1Pb+1dkWzPEqyAdLAS33/zmwve3LwfK0bqzUHqeAcfq3Xs4hFg7tjvtGklt3l1yd9fp0IrNz2FFcH+h9LcrzwLn34RCP8bDAvxXCujQ6nCu1mLmFRuVV/wrz+kDncQkn+C9f43uvkRaXCE6bWn92tH+pyEp53YecSZG6jDHYQ0nmu1/0f+3ur7aU1TOlPu9r+e67kmdIaEWxT4IO5ba/1fluG/dlUddZ1T8AedYbsFNErzapAPwitaaL/buy1E6Mcj1XRG4meWHxE4Rsot630yx22V/5eynNA6+6DK/vH+JQWmMQt/ot3voY51cFLwK2v8n1TNx2CDXpHWmfuW0DRy4h+5TR19z8YUsGKHSHyE74d2V1PJJcjkYYLTuAvrU8Styvwy8ZJu//fX8jtY6j6ZPWUSO7ryt0e0SqMFaRzLfL3b+90fDoZGyxkmrCT1KX88tjp8gTrOQUzuM/r8P5ELG2296MfIbVKTwHpjPUsd5WCm4yLZgjx+aF9P4HB5+GdFRbR+kdvO5/kSlivDuwMhLh9zm7e/fIRg0cbRU/Hyb7F3SE5hOPIjMIM6xkFOtQdFCwj4IWmqRL3GJc9jcvIfcJC9brw9FONyX/ED5Flov0/yg0tduLVEknzZvw7wR6dd1PG1AWc/UTw2cOaadKVOF3xMbZnC5cNVcC5RR9ce1PpB+nnwUptzCg9Y1WBRlWN9lWFJydI3jiWudpjEh5udK/N0VBqmBCir1sgMPrF+J3Vk7cOmaT2Evt/WGbFdzf0QrLRoayXN1qDmHOqw2ophAv6/bWaANqC02jvbHaDmCOqY2gqRBDBVXhx8D2yvtmrjAnc716SOqa2wPAEKQ8q7FEXBEihVqWNqKyxPAHATRxVF0Z8g0aLUMbUVlicAuOj0gaIoWAEl3kMdVDthdQJsApW3K6rWAlW7UgfVTlidACmgsmq55+Ggquj+IibE+gTIASqrlvm8AaryUqAEVidAHKisWt+tMagqtsOUuYnVCRAO9phRbWU8C7xebi8ogeVvATsh5dyKoufA642jDqqdsDwBwEW7uxVFJ0KiUZGKqo7E8gQAj/cfVhR9BhJNpI6prbA8AcDKEWGKouBB0a+oY2orLE+AdZByBUXRIZDoA9QxtRWWJ0APULqakuZlULM7dUxtheUJcA2UHmOB5h7qmNoKyxNgPCj9u5Lmb6Cm6gcGZ2J5ApwFpaPmK0h2gI+GcPMAGSxPgJBEUHufgiLcwXimhzqmtsL6BFgKaicKnjLLQAH4oPsR6pDaC+sT4CAsvkZasB8s2I86pPbC+gSAv93Ll/dsjpxmUP3A5FCsTwAPckh8uqTeRiSh+EuAFNYnANbFMLqhlNp/kYstRR1RmxGABHgEkS/aQUJsxXFEjc8FyRGABCiAHUMtdkBcC2tkmzBOWItJJwAJELIXG6CU6O/2JrTexB/UAbUbgUgAvJn1MbEMCMWbIo+lDqjdCEQCePB6/6VEfgVS8LLXicqnmJ3KWTSmhtHS7CBX8TEm4Sv4+X/EZSpSx9Nm9Bwh0ucjKayuuX5MzQWKEiWWQ0ReFWiJHnuZOqJ24sBz4o1+2k+9YWao7iJj9IH2868QqnN6D3VMbcToflOE7U8nPgytDeqfnHi9wDRaFPJ3qOvsE0IVjeLzU0fVNhQoJHBDzcwv15XH2yE2QoupPX38caXuggWt9lKH1S54PlBrKBj9c2PFEfMLV6f8MWJ8aIY/7PjCT++L/qlbtuioUzmn3uQv4QnFcuwCLwK3KdLgZMTBt9t9cDDi5HcyZee5OJAQTarI9ePMxIvTlEZNRVs9mGYtHwkTYVZhk3GOPiW/iSeNsZYnwKvUobUF29zmI52sdKp7nfmBQfg8iACp6HcZIXaq/LPlxD7kmqM8vwLiNDZ7+7/NVIV9NyWizY/rn6bUwbUBlUWbMAuwVPwb/m2sbGA5mTq4NiCXUPtdUSYtl76ATV+aH9YPNRTy0Wls36k35r1lt/OGhFTT3rru/yn9KXV0g5/7NftvGHXOSl/ER9ov4iYxV6SvxHHMsOCfr7B8r+5Vbgv8jzK7Y8UB3FBb/Ef4MkX6Qqpb8CrA58FRRlvUPLqPfLn34tovIoI6usGP6w9r/DeMRfIXU0+lvbx/otl/nGfMx9kPUXnlryaPia51WYi/Rh1cG3BF7/+cFyMVtoptb6Ft+JkKCeg4Rk+wzn/DGCDQRTgzuXRdUTfVcuOO4gcr/TeMNxQuadivWob+TX4tyoHktdZ/I2GWwkW5ygptEwWJj1C4+TiPFI1fgHzztUfluv6sYHLY+i9Qh9Ye7LPaf8N4ROnCUiPMtDGPOsUbwIToINEiuP/PP13IneuOnue6zBnxZHnxv+umtEcsJOSbTsr+F+upNqTzEH0CjPr9be+yrZH37xPex3lV8eJctdV+n7rNU2s46UCWiC0BXPrJ16E61/iXxFbuk5SfxjvOkd8tfPRh6R72zuUekYiW/95vo7UZLwl58oT6FW56OlnK/s/nhaoP5jg6iDxn9QFr9OTtL5JCZgqzeFY9K3r8I6lPXX71k6EHHtPy2G7KwRtxEWO2ueuMq71A4Mdmc1nuCChH6kg0qDVK4jIX3ahMe9P35Q61fzgKDDDh2NMqdaUdzgXUuGJCm3rq4rfo/+q43kfHTP6tWxbptb+c+kwgTZmsoDW1Fgge9VyPrib8qu2iu1bauq1Qm3vCwsJ2TH63dfVcvOCjzCHsFOjCwaJS6F6+eL5BBx8fI6a9KNFi82HsFvAJ9WyZLMCdVYxYqY/p2LtAJ+rZMpkpgCwCyP3Pjt4Pq7nl94gz1lICdqy35PnOcsgtwHQ1QUYzp0C/oqV3U9WEE+A89XyZTNQA/eojrTcDXqx7kXq+jDepbtCvfPKKSK3GDdQzZrxYDLq1QEGxFpwAW6hnzHixB3RLqaAGfMDsceoZM148CJlVXqncH9yx8SXqGTNeLIDMOqkk2RNMgBPUM2a8AO/Xal27XWAHuEvUM2Yy4gKPYCp+Xl0J3gL4u10wAbYCKa+4qxY+ZqxyRIixim8gqzYrirYEE+B16jkzGcgFWaX2DBgS8hiYAKOo58xkYD1klWpvpflgAnC15mBiC2TVu4qio8EE+IB6zkwG8kBWfa8oGgkmwFDqOTMZAMsCqBZWSgUT4GHqOTMZAJ8BTiuKwm0m36aeM5MB8IH9L0XR/GAC3E09ZyYDJSGrjiiKbgcTgCt2BRN3QVYdVRStByaAeltBRj8pkFVRijU94Baw3LQlqADbQj+lpgn273ab6zDNaOYVyKxWSpLjwHojdahnzHgB7gjqrSTZFPwFWEo9Y8aLN0C3lD7dwq3/VBcXGGuAT/L0UFAcBlf35HWg4KIa6FaiwnvAO6Ci8RH1jBlvjoJ2rZHWS20PCpbnl4Ag4zzo11rpW8Aa+Aawjnq+TCYGwobJPgWcRSpOtaaeL5OJFbBhsd/Iye2G5Yzh1PNlMoNUYe0t1W61HeJ/UQ/1dJnMYGUiT0loNcaav8uIMYFhOOKZsU1YqivaeP4c9WyZrPRGTIsSLevS8RfM/yFcwD0IQbt0uucJ6aR8iwlx+86g5C20W0DUQQGZYZNQ/6MfpZ4r44ulqHPGbrRa6PWjuIrqHjPGWu7HrTPOwDu5NhUX6TmwnnqmjG/Qh7f0n4G/lvsXqFVDQMEYQD1Pxg/bRewzWlT00/Tn/lJiTYO6UM+T8cdCIQONIhu3ZOnFMu5h/OHvFo2oZ8n4pYugh4bR7N6L+W5/ITz0+r4B4s1dr1DPkvHPSmEb06m/+bel3w4oXFrqj36mniMDMH+nlJkKlO9g/ioZ61hkdQLwRoDgpmMda/2vIVl2ngk0ucx06UZJGkQ9PwbjDfM2++cz6tkxKC6BTwKq8BuAHfjXF1b5/3lX81fHWE+tJPNe+6I0Fwe1CaOwHpJKxPASoG2YY4H/Ue2oZ8WI867+BNhDPSdGAlcb3f4vop4SIwe6RVSK+DnU82FkqYfuERUnYSL1bBh5top/4kdowc//tuT1KXr8P1OZeiaMGhuO6PD/PLqVnAlWwiNMPwgklaWeBGOGLkfN+d+Ib/82JzXCxAaB42XDzV8BQ0zJBYr2R5/nFuHZAtfWZBX/f19MfeGMLjx1G8jav+B+6otmdOIq8bWE++57ee9f9mNJRH8x++cWb059rYwlhG/fXRRzv04VfvHL1lQbE+a3BNjasDE5qa+PsZ7IQa9GnPxuZ0bry3T6a03extQXxgSU5Z8uzt2wXbsrufPl5NV+hmEYhmEYhmEYhmEYhmEYhmEYhmEYhmEYhmEYhmEYhmEYhmEYhmEYhmEYhmEYhmEYhmEYhmEYhmEYhmEYhmFsy/8BdQgR+soqJUEAAAAASUVORK5CYII=;" vertex="1" parent="1">
          <mxGeometry x="72.5" y="90" width="90" height="90" as="geometry" />
        </mxCell>
        <mxCell id="mlgXHm7Zvc4TcIgTKmac-2" value="" style="shape=image;verticalLabelPosition=bottom;labelBackgroundColor=default;verticalAlign=top;aspect=fixed;imageAspect=0;image=data:image/png,iVBORw0KGgoAAAANSUhEUgAAAgAAAAIACAMAAADDpiTIAAADAFBMVEUAAAAAAAAAAAAAAAAAAAAAAAAAAAAAAAAAAAAAAAAAAAAAAAAAAAAAAAAAAAAAAAAAAAAAAAAAAAAAAAAAAAAAAAAAAAAAAAAAAAAAAAAAAAAAAAAAAAAAAAAAAAAAAAAAAAAAAAAAAAAAAAAAAAAAAAAAAAAAAAAAAAAAAAAAAAAAAAAAAAAAAAAAAAAAAAAAAAAAAAAAAAAAAAAAAAAAAAAAAAAAAAAAAAAAAAAAAAAAAAAAAAAAAAAAAAAAAAAAAAAAAAAAAAAAAAAAAAAAAAAAAAAAAAAAAAAAAAAAAAAAAAAAAAAAAAAAAAAAAAAAAAAAAAAAAAAAAAAAAAAAAAAAAAAAAAAAAAAAAAAAAAAAAAAAAAAAAAAAAAAAAAAAAAAAAAAAAAAAAAAAAAAAAAAAAAAAAAAAAAAAAAAAAAAAAAAAAAAAAAAAAAAAAAAAAAAAAAAAAAAAAAAAAAAAAAAAAAAAAAAAAAAAAAAAAAAAAAAAAAAAAAAAAAAAAAAAAAAAAAAAAAAAAAAAAAAAAAAAAAAAAAAAAAAAAAAAAAAAAAAAAAAAAAAAAAAAAAAAAAAAAAAAAAAAAAAAAAAAAAAAAAAAAAAAAAAAAAAAAAAAAAAAAAAAAAAAAAAAAAAAAAAAAAAAAAAAAAAAAAAAAAAAAAAAAAAAAAAAAAAAAAAAAAAAAAAAAAAAAAAAAAAAAAAAAAAAAAAAAAAAAAAAAAAAAAAAAAAAAAAAAAAAAAAAAAAAAAAAAAAAAAAAAAAAAAAAAAAAAAAAAAAAAAAAAAAAAAAAAAAAAAAAAAAAAAAAAAAAAAAAAAAAAAAAAAAAAAAAAAAAAAAAAAAAAAAAAAAAAAAAAAAAAAAAAAAAAAAAAAAAAAAAAAAAAAAAAAAAAAAAAAAAAAAAAAAAAAAAAAAAAAAAAAAAAAAAAAAAAAAAAAAAAAAAAAAAAAAAAAAAAAAAAAAAAAAAAAAAAAAAAAAAAAAAAAAAAAAAAAAAAAAAAAAAAAAAAAAAAAAAAACzMPSIAAAA/3RSTlMAAREfKjVEUkxBMyUZDQY2XYSq0PbrxZ13USYDs/Hpb0+s8uKRNCuI14AiBFzT/bY9XtnETWzkzUrKIQhZ7Dn7ArwY8/75V4lym7CXhmtgVfok6hsHwZNHDuYPlIwy/C/H+NKrlXl/irnfw2ExDEhf3W0UMI/wThB97WZQqBI+41bI92m4mOiQQkCf2C31LhV+aN6vVMJY1QvcYkN2HaTAu8t7CjocZCmylnwTIK5LKIV057Q/khamBcxJW3FGnvSxo26lgdTgCXBjGoKON7rhoe9zz3WnJ5mL1mfbF+XGnDvaosksWrdqU+7OeHqg0R6DRYdlqb84tb69ja0jPJo5LvvoAAAhsElEQVR42u2dd2AVRdfGc0GKIEFCEQhNegiEIr14r5AACkqkEzAQikpTOgakRSkS4AUbEeUVCApIkyK9g4CgFBEBRV9EkRc/FQFF/UT3S+ATc5N7z5mZnb3nbvb8/s8zO+c52bs7O3NOSAjDMAzDMAzDMAzDMAzDMAzDMAzDMAzDMAzDMAzDMAzDMAzDMAzDMAzDMAzDMAzDMAzDMAzDMAzDMAzDMAzDMIw5XDly3pErd568d+bLf1cB6othAklowbsLhRUuYmSgaLF7ipcoSX1hjPWE5yteqrThhzJhZfNRXyBjIaHl7i1vIFSoWIn6MhlrqFylDOb+LapGVKO+VkY3kdVriLl/k6iatagvmNFJaO06Evbf5L66LuqrZjQRWa++rP3pNGhIfeGMFio1UrE/nVKNqa+dMU2OilGq/htGkYgm1NfPmKNpM3X706lzP/UMGBM0qWjO/jTcER7qWTCqlCxs2v80HmhOPQ9GjaYtdPhvGPVrUc+EUaFstB7/DSOmJfVcGGlcrXTZn0Z0a+rpMJKEP6jR/zSq8LqgrYh8SK//htGGM8BGuO7R7b9htKWeFCOOzt//2/BzgG142Ar/jehHqOfFiNHOxOo/RGxu6pkxIjxa2rzXvmnfgXpuDE7HBlb5bxidIqlnx6B0ts5/wyhEPTsGo4S2BWBfRHWhnh8D07Wblf4bRrc46hkyIN2t9d8welDPkIF4LN7qBHD3pJ4j4x9PLwkrE3r36Vul3+NPPPhkf5nnhgH8USB4GSjqYkzN1oM8//zd4Kda9RbOgKepZ8n4I3KImIW9hw7L+sfDR4wU++shvBgQrFQXMrDRKD838dHPJAoJ1KaeJ+Mbl8jxv8QxwG+42CGCqh7qmTI+GStg3rPjYI3xEwREJlLPlPHJJNS5pOdQkWHP4wlQmHqmjC/uQI0bWUtAJnwyngG5qOfK+KAKZtuU4UI6rrZoAnSmniuTFU8FxLXSg0SlpmIJ0CyUerZMFqYhpiW8ICzluRfLgHLUs2WyMB3xbKiE1uBkROxe6tkymXEVhS0rJbWEPyMJVpvZkXq+TCZmwY4l/ktObjZyCxhPPV8mE2Vhw+ZIyjV5EdaLoJ4vk4mXQL96h8vqvQwnwCvU82W88cClYF6VF5wLCsakUM+Y8QJ+BHhN+gYQEjIPvgW8Tj1jxouWoFtvKCg2gbcH1KOeMeMF+NQeNV9FEl5Y4NXg4OLfkFlvKkl2ARNgAfWMGS8WQmYtUpJMTYA0K1DPmPEC/MFerKY5ANKMHkw9ZSYDcZBXsYrf7uAyE3dQz5nJwFuQVcmKom+DCcCLwcHEEsiqpYqi48EEKEE9ZyYDuSCrlimKNgYTgM+HBBPgbpBWiqLDwAQYQz1nJgOjIKueURTtCCYALwUGE+CRgHcURUM5AWwDuGpXRVF0OZgAA6nnzGSgFmRVd0XRFWACTKSeM5OBfJBVKxVFF4MJsIp6zkwGVkNWzVUUfRpMgDup58xkYDRkVYLCdpB03gUTYDX1nJmMgNVBFdtBPwBpRqdST5nJCFgaYI2SZOhMSHMt9YwZL9ZBZj2vJLke/AWYRD1jxov3ILPcG1Qkl4EJsJF6xowXcH0wmXOBf7MJPmvG7SOCC3hbeA2F2n4TQUWjFvWMGS/CwSc2o6684mZQMJ4PhgQZcI3QSdK3gC3wDaA39XyZTCB9orZKykUilUMrUs+XycQLsGFTJMu8b4PljO3U82UysQkp9LpDSg3rO7SzCfV8mcysRP5n75bQQvsO7aKeLZOFRxDPWjwmroU2Hp5HPVsmC4NbIKa1LykqhdWHMXYWoJ4tk5XdmG1DGosJ7UH7R0zXdMmuFduHvrd31wObk4fU2fzAro2dyz5VTfHbNROSG7PN6DZDRGcfqqNlGbDD3dMLF/GhnfD+7nmCmcp44dmPGjcyD6qSgt5IDCPZbNeYAy+3qQOOsH/61q7U8bQfB3Hroqci72+V38dFjA9MXaZr/T0izW2LbNzCrUnkGCzS8OO1pwCF1LYxAhITzFQKPnS4v8AQt1j74aPUMbUXh4XCuu4jP38eOgb/EUmnrPoVNp6cIDTE38RvFHpsYW6xYadYWI+87OOHoEPxo2J/XUZ5N+CSY24p+9OJ3vWR6nAO5HHRsB7fsfWuDH/n6tl6gXDLSdVToeMmizQk8kHYW9RxtQ0p9SXiuv9I535DB475+PHpk45L/NkJtRd118D2avan0eKTTdSRtQvYerAG1CqDzLrP1KBzxZsdOBtPI6v9P6lyWa6DIm8XENFV+J1QiCVJJiON0F5lg3FcmIaRG/HyoBD9rE0AfCkxK5UEO9oijGxHHVtbEGnpj4DKV6APYjUNHs1NCkT4VGSdVZE6khvL0ukn05se4RR/KhRglMaIe1O+svTFuE5rvYKHDlBH1w7gjR/ViBolfSmb9mq+hldGU0fXBoQLtP9VQb7YlOdZ7RdRjI+l46QWs8L/vvIXgrYgVWAdrwriLD+jP/C7PdKXge4tVOLf8hfiPOZjjYSlWSm/EveZJf4bRg/q6NqBxp/rDfpJ+U0gdwp/X5SFyxQLcPaEzpB390hfwIYvrPLf2Cn/OupAcnypLeDRCj1nPEcs898w5vLhdAE6/kdTuFu0VBj9GQv95wI1gtTTsgqfrNIc5pxlDwC3aEodW3tQS8PvcB+VDfqbapgfGGQtrwgKEXfKZKCPq+0AXGOx/4bxHnVo7UJDUzeBUoeUBn0LO6hqnqiC1JG1C8OWuVWD/NVYxTH7SAxSetL52UM/aDdv6Oxjk2S+ZH/toY6sbfhG7Y0ssazqCaDxokNED1iTK+Mn/vCCxYsJf8y+QB1XG9Gwl2hUb3O8bQ7l4QQTbsrsFT7++NHDRcX+/H0PdVjtxAvfStl/dJuJEhC5hIaof9Hf5o6Ug2uFFP5LHVR7MbzvJUH342u2NPXJ9SGBMWJaQb2H494TWUb4zuwpdafRpOWTAmE90/ouc8PMEPgVPzMLESkospOYu9bIMkwgqqY3X0/HxziGr+XH3YvLLKCOp+0IRAKklEeHEOpj52qF6kTNpw6o3QhEAlRHRxAtXv8/qFJx6oDajUAkAPoO+L2wFLq9WbUfmmMJQAJ0wJ7fJfaWun7ALjYfdURtRgASAPsM9LXM8uKBHxG109QRtRkBSADkF6C03BnfT3fCcieoI2ozrE+AUMSxPZJ6xWG5qGHUIbUX1icA8h3oO9nTnZuQuoW8HCyF9QmAlKl6SlowLyyocFzJyVifAJ1A7Qbygi54e3tV6pDaC8sTwFME1H5VQbIpqBjNG8RlsDwBVoDSI1VO9zeBa9gNp46prbA8AbqA0pOVNOF9rSpnFpyL5QmwB5TeoqS5HdR8nDqmtsLyBOgLKbvVdhmlgvWl+YyQDJYnwAJIuZei6CuQ6GbqmNoKyxMA7Dd6SlG0MyQ6gTqmtsLyBHgRUlbtOF8PEi1CHVNbYXkCgBXByymKwq8WXDhOAssTAHxeU6szjm0zVz++4ECsToBIUFmidakXq0HVs9RBtRNWJ8BoUHmJouplUJU3hkpgdQKk8h0guLE6AVzghkDVZ4CC4PXyM4AElj8Egh9uyimK8luANixPgAmQ8seKokMh0ZnUMbUVlidAVUjZkpXAo9QxtRWWJwBYm7CXougASHQhdUxtRU+BBOh82cQAYHn42MFKmilgx7G91DG1DZ772wrWbjvxU0GP4iDwYS75LaHpwPsBZlPH1R54rkyXatxZ/+pqpXGugaptlDQng5q8I0iAQ4vAr3S+6TVHoRZjblAysaPCxYcmgpo9qYMb9Lga7nLL259Oi6nSvRqrwYoqxzheBhWjuIMMjCvPd2ru3yT+Z8lyjKuQu4rCDL4GFfmAOIinbgMT9t9kgcQKfn60Rax8D+grsCBXjIVYpaN1UNTeamKjxfXAO0QXky3s5VkIC5agjnEQU22pBvvTiZkqUDA8/FoZEa1HJCeB9B2K509B/jgQobGP+Bfo09t6wQ41Zf4lNYtD8CsA7wn2yzSFFz+IUjmh0VaIV4euKfMjEP4LonaVOs5BSujpKL3+p70TDvQ7WkohmZuNTGWvw5gYVm/Soaw2/ezvi3t9/9662h2Vkom+W3geW7Gao1whxicXiwg5Ic2L130Mdn2SrEzC64LzyIu2PFI9aZCtCd1hjf1pxM7JPFiH3Qq96pPKCU3kAuq/uzl1sIOQ5W9a5n8aU71q/Bx4Z6eSivszfB6uNfhjzK/UwQ5CHk220n/DeDLun7Hqqr9p7Ma2BnRFFxXTEP0tcRB3HheImyl6/33bHdTJjEydaeA8VvUX0PiSOtrBx3aLHv8yktwhfaQND5p90dy7wu808guUik+jIXW4g44tGhf//PNazpDQNSPN68Tu8L3p5JvdYl1HG3DDkEysShAKnGn2D/xKk9KXz2V+ju9Qr5HoH/N3oEzUxT/GBSFzO18b3zy9gHTH5uuvdZf4fPkb3wC8uR6A33/LiLkkm70xqkdNsysrplCbGFjepQ54kNHV6nbdQcZRrhDqxabfqR0JLNH8CujNMmpHAsz/Ugc8yMhDbUiAkeo74wDmJ5qPqZ24tMJ8zLITkfdROxJYorllrDc/KYXx0qRjIwoVn7OnX5W+f7wfoDVEPWyjDniQUUls6TwDMa9ETPPenRt+o90yiz8ka4M3gnoTvlAufkVO5vVznu7QxV7U5grwH14C9uaiVPgavB0HiZUsVJTaYISVsn3HsjtnL0lE77666L9PStkJ1B5D/NGEOuDBxm7x4BVeL6TYcY/l24qUGeGhjnewUVB4V27pg5Gios1V9vr6ptmcjfrsj15DHe7go6Zo8GoekpGdNkGLY/HLxoW4FunKpqSt1NEOPq4Lxs4d4ZETXr5Og2MLP7qptaq0Fv+TuUNcVp4Xi92ExdLKrjeklxcysbb230+cPXUsMfygVmQue7NYLHZnlEqqlzC1xTT2wwxFBQ6MMLuHuEVt6lgHJd8KBa/XcjX19Sa2/v5e2Vtr/BBT/v9hpnpl9uWG0P/VL8qbZ4bLrDFkpMLELFqDe6h/b6iznTrSQUoVkeidiFMf4E+ljaYJbX2m3Iq9ar8D5fvx13/fhIrsA33N1AnaUW55w37N70/tsQXyas1mj6OOc9AyUSB+I/ObG6OewBheDBkFyT02Xe6H4IvW/OzvnwcEImiq+Hs6Iqd0/2HmbGytfsM79UXF3DUvqNSWdQwdBFbY+poeJe41Cf//yCmgGD6+YgUBrYVluR0UzBw8iDU0fDsT329S9YqopuujqwOgVYa1G6/doA5v8IMvAkTX0jFORTH7y38i97Aeen1bWO+dWb1/86+LfOpLhK7449R0LQPFdROwP3qv1Mem22y4fuHjd6r0vSfs5Km+hw9eqCRQk5S5RTvUlEtyVTn9shX3v4JqT0BGmX+jrszWNJKrNzrUd9TRcCDo21RpbYWUm6IJEMOLdYFmPmqKvu3T4XXQwWZQx8NxvIxZEqvxNXoMmgDVqePhOE5jluzSOFgc+lGoFXU8HMcAzJKXdY72LDbaH9TxcBqRMxFHLmldRl+FJcCP1AFxGjcwR45pHW4Ttq9zJx/YCixXsAR4Wu946Cbhu6gj4jDQ53LNm+haY+PdTx0Rh3EV8eNzzeMNwhKA63YGFuyxXHdXdQ/2IijQAoDRCFZR9xndA2LfA7QPyIDsR/yYqHtArDFcZ+qIOIz2iB/az9EVCvBvDgODrQNp30uNvXaspI6Is3BhG0I36R4R+yTMDZwCSgpiR5L2EbHF4N+pQ+IsNiB2FNU+4nhkxGLUIXEWbyF21Nc+YkFkxEbUIXEWyxE7LmkfcRoy4ivUIXEWTRA73NpHLIeMeIQ6JA4DO66jvZxedWTAXdQRcRjlET+0t1XGjgn/TB0Rh7EW8eOc7gFHIAPuoI6Iw/gc8WOe7gFrIgO2pY6Iw3gT8UP7Ll2sU/jD1BFxGDsQP5ZqHi8Ve+rMQx0RhzEb8SPRo3c8dA/ideqIOAzsrcwYpHe8tth4Hagj4jDOYYZ8rHe8SdgdhzogTuMQlgDPax0uhxsZrhN1QBwHViPQrXUp6DMs396jjofjKIVZUlbnaGhnwmvU8XAcizBLGmgc7AZakS4fdTwcR27MEuMxfYOh7wC63zoZlK5o5eU+2saKQ7tI8enwwPM+ZkqUtnJ7z6B3m4vU0XAg2Oc5wzivaaTBzdChVlNHw4G8gLoS9ZGekVqhIxm/zaIOh/OITERtWejRMdAdMXgCGO73VI+ieJZXm1Ewd8PclVbPz8FVJmQ4j9ui46fZ9ZuA/2k0e062q++B8fVGlDqTseJtbJ2lp6+tH00dWZuAFoozjOMrzA9zTcz/NAq/IK46bmyPL2P96MRvPt2wAHV0bcBggYY+k0wfEZsh0zYoTKRfQJr7A2vGIkruYns0VTrOxgj8Bhj/a3KMwVUl/DeMIvtSMcXIiaj7t4gtNZFbhYP8KRDFaHM9Yzw/S/mfRoWW4JPcuOIi3UL+5vgT2nc3ZyvQtaA0EiR+mLOCLzZkpZP/2gTz22DH2jOT1FfDY0y2ZY9ICEubqBXxhoL/aQ9xk4f5VIu7qtKGMPYHsQcLJ5JDKKBTlBdpHlZt/H6pbNaHz9CD+IKib2Z+z8Xo/XBKKIDHFdt5HFY0LJ25mRtI5RL5vfJHsnA7KoexQmSRLu2HdKyCdvhfJhxL46GMfb86tnWbU3uW+4f6ROwWYEQdll2lC7nrF3OOpT1+Xr3d9TOfmX//WxzlUqS+uCx2CzCMNyWbet0p0ioMo9sYz02x6ko9qDPhjvBQRzsYmSwavzItJVQH91Br9J2FXrlCQjZ116Nl1FxOHe0g5HKScPwWfCoq+vIETZal/fjsmNVJm1hVfiHMyuPi8UvoIbSudv2INsd0U/8b6nAHHx2TJQIYcx5tyfsnut+cEtU32uxMF6kIxqwcC6yqnC3bgNpihKQt1PEOPrAyzplptqyczy0XN66tc1P7izNzMXW8g463sH4+WYlvdPqR6/8srbhyXqk3/Si1tYIkVqYOeNAh0NzZJ+2/2vz70m8HnBii4zU9cNTnd4HM/EDtSWBJ5k2DmUiReRPIBizl3cOZeCzBfFTthNaTz9mCodSWBJaYgtQBDzr6UnsSWPrnoA54sBG+i9qTwPIgdcCDjgInqD0JKNG8HpSZQzL7re1Pb+1dkWzPEqyAdLAS33/zmwve3LwfK0bqzUHqeAcfq3Xs4hFg7tjvtGklt3l1yd9fp0IrNz2FFcH+h9LcrzwLn34RCP8bDAvxXCujQ6nCu1mLmFRuVV/wrz+kDncQkn+C9f43uvkRaXCE6bWn92tH+pyEp53YecSZG6jDHYQ0nmu1/0f+3ur7aU1TOlPu9r+e67kmdIaEWxT4IO5ba/1fluG/dlUddZ1T8AedYbsFNErzapAPwitaaL/buy1E6Mcj1XRG4meWHxE4Rsot630yx22V/5eynNA6+6DK/vH+JQWmMQt/ot3voY51cFLwK2v8n1TNx2CDXpHWmfuW0DRy4h+5TR19z8YUsGKHSHyE74d2V1PJJcjkYYLTuAvrU8Styvwy8ZJu//fX8jtY6j6ZPWUSO7ryt0e0SqMFaRzLfL3b+90fDoZGyxkmrCT1KX88tjp8gTrOQUzuM/r8P5ELG2296MfIbVKTwHpjPUsd5WCm4yLZgjx+aF9P4HB5+GdFRbR+kdvO5/kSlivDuwMhLh9zm7e/fIRg0cbRU/Hyb7F3SE5hOPIjMIM6xkFOtQdFCwj4IWmqRL3GJc9jcvIfcJC9brw9FONyX/ED5Flov0/yg0tduLVEknzZvw7wR6dd1PG1AWc/UTw2cOaadKVOF3xMbZnC5cNVcC5RR9ce1PpB+nnwUptzCg9Y1WBRlWN9lWFJydI3jiWudpjEh5udK/N0VBqmBCir1sgMPrF+J3Vk7cOmaT2Evt/WGbFdzf0QrLRoayXN1qDmHOqw2ophAv6/bWaANqC02jvbHaDmCOqY2gqRBDBVXhx8D2yvtmrjAnc716SOqa2wPAEKQ8q7FEXBEihVqWNqKyxPAHATRxVF0Z8g0aLUMbUVlicAuOj0gaIoWAEl3kMdVDthdQJsApW3K6rWAlW7UgfVTlidACmgsmq55+Ggquj+IibE+gTIASqrlvm8AaryUqAEVidAHKisWt+tMagqtsOUuYnVCRAO9phRbWU8C7xebi8ogeVvATsh5dyKoufA642jDqqdsDwBwEW7uxVFJ0KiUZGKqo7E8gQAj/cfVhR9BhJNpI6prbA8AcDKEWGKouBB0a+oY2orLE+AdZByBUXRIZDoA9QxtRWWJ0APULqakuZlULM7dUxtheUJcA2UHmOB5h7qmNoKyxNgPCj9u5Lmb6Cm6gcGZ2J5ApwFpaPmK0h2gI+GcPMAGSxPgJBEUHufgiLcwXimhzqmtsL6BFgKaicKnjLLQAH4oPsR6pDaC+sT4CAsvkZasB8s2I86pPbC+gSAv93Ll/dsjpxmUP3A5FCsTwAPckh8uqTeRiSh+EuAFNYnANbFMLqhlNp/kYstRR1RmxGABHgEkS/aQUJsxXFEjc8FyRGABCiAHUMtdkBcC2tkmzBOWItJJwAJELIXG6CU6O/2JrTexB/UAbUbgUgAvJn1MbEMCMWbIo+lDqjdCEQCePB6/6VEfgVS8LLXicqnmJ3KWTSmhtHS7CBX8TEm4Sv4+X/EZSpSx9Nm9Bwh0ucjKayuuX5MzQWKEiWWQ0ReFWiJHnuZOqJ24sBz4o1+2k+9YWao7iJj9IH2868QqnN6D3VMbcToflOE7U8nPgytDeqfnHi9wDRaFPJ3qOvsE0IVjeLzU0fVNhQoJHBDzcwv15XH2yE2QoupPX38caXuggWt9lKH1S54PlBrKBj9c2PFEfMLV6f8MWJ8aIY/7PjCT++L/qlbtuioUzmn3uQv4QnFcuwCLwK3KdLgZMTBt9t9cDDi5HcyZee5OJAQTarI9ePMxIvTlEZNRVs9mGYtHwkTYVZhk3GOPiW/iSeNsZYnwKvUobUF29zmI52sdKp7nfmBQfg8iACp6HcZIXaq/LPlxD7kmqM8vwLiNDZ7+7/NVIV9NyWizY/rn6bUwbUBlUWbMAuwVPwb/m2sbGA5mTq4NiCXUPtdUSYtl76ATV+aH9YPNRTy0Wls36k35r1lt/OGhFTT3rru/yn9KXV0g5/7NftvGHXOSl/ER9ov4iYxV6SvxHHMsOCfr7B8r+5Vbgv8jzK7Y8UB3FBb/Ef4MkX6Qqpb8CrA58FRRlvUPLqPfLn34tovIoI6usGP6w9r/DeMRfIXU0+lvbx/otl/nGfMx9kPUXnlryaPia51WYi/Rh1cG3BF7/+cFyMVtoptb6Ft+JkKCeg4Rk+wzn/DGCDQRTgzuXRdUTfVcuOO4gcr/TeMNxQuadivWob+TX4tyoHktdZ/I2GWwkW5ygptEwWJj1C4+TiPFI1fgHzztUfluv6sYHLY+i9Qh9Ye7LPaf8N4ROnCUiPMtDGPOsUbwIToINEiuP/PP13IneuOnue6zBnxZHnxv+umtEcsJOSbTsr+F+upNqTzEH0CjPr9be+yrZH37xPex3lV8eJctdV+n7rNU2s46UCWiC0BXPrJ16E61/iXxFbuk5SfxjvOkd8tfPRh6R72zuUekYiW/95vo7UZLwl58oT6FW56OlnK/s/nhaoP5jg6iDxn9QFr9OTtL5JCZgqzeFY9K3r8I6lPXX71k6EHHtPy2G7KwRtxEWO2ueuMq71A4Mdmc1nuCChH6kg0qDVK4jIX3ahMe9P35Q61fzgKDDDh2NMqdaUdzgXUuGJCm3rq4rfo/+q43kfHTP6tWxbptb+c+kwgTZmsoDW1Fgge9VyPrib8qu2iu1bauq1Qm3vCwsJ2TH63dfVcvOCjzCHsFOjCwaJS6F6+eL5BBx8fI6a9KNFi82HsFvAJ9WyZLMCdVYxYqY/p2LtAJ+rZMpkpgCwCyP3Pjt4Pq7nl94gz1lICdqy35PnOcsgtwHQ1QUYzp0C/oqV3U9WEE+A89XyZTNQA/eojrTcDXqx7kXq+jDepbtCvfPKKSK3GDdQzZrxYDLq1QEGxFpwAW6hnzHixB3RLqaAGfMDsceoZM148CJlVXqncH9yx8SXqGTNeLIDMOqkk2RNMgBPUM2a8AO/Xal27XWAHuEvUM2Yy4gKPYCp+Xl0J3gL4u10wAbYCKa+4qxY+ZqxyRIixim8gqzYrirYEE+B16jkzGcgFWaX2DBgS8hiYAKOo58xkYD1klWpvpflgAnC15mBiC2TVu4qio8EE+IB6zkwG8kBWfa8oGgkmwFDqOTMZAMsCqBZWSgUT4GHqOTMZAJ8BTiuKwm0m36aeM5MB8IH9L0XR/GAC3E09ZyYDJSGrjiiKbgcTgCt2BRN3QVYdVRStByaAeltBRj8pkFVRijU94Baw3LQlqADbQj+lpgn273ab6zDNaOYVyKxWSpLjwHojdahnzHgB7gjqrSTZFPwFWEo9Y8aLN0C3lD7dwq3/VBcXGGuAT/L0UFAcBlf35HWg4KIa6FaiwnvAO6Ci8RH1jBlvjoJ2rZHWS20PCpbnl4Ag4zzo11rpW8Aa+Aawjnq+TCYGwobJPgWcRSpOtaaeL5OJFbBhsd/Iye2G5Yzh1PNlMoNUYe0t1W61HeJ/UQ/1dJnMYGUiT0loNcaav8uIMYFhOOKZsU1YqivaeP4c9WyZrPRGTIsSLevS8RfM/yFcwD0IQbt0uucJ6aR8iwlx+86g5C20W0DUQQGZYZNQ/6MfpZ4r44ulqHPGbrRa6PWjuIrqHjPGWu7HrTPOwDu5NhUX6TmwnnqmjG/Qh7f0n4G/lvsXqFVDQMEYQD1Pxg/bRewzWlT00/Tn/lJiTYO6UM+T8cdCIQONIhu3ZOnFMu5h/OHvFo2oZ8n4pYugh4bR7N6L+W5/ITz0+r4B4s1dr1DPkvHPSmEb06m/+bel3w4oXFrqj36mniMDMH+nlJkKlO9g/ioZ61hkdQLwRoDgpmMda/2vIVl2ngk0ucx06UZJGkQ9PwbjDfM2++cz6tkxKC6BTwKq8BuAHfjXF1b5/3lX81fHWE+tJPNe+6I0Fwe1CaOwHpJKxPASoG2YY4H/Ue2oZ8WI867+BNhDPSdGAlcb3f4vop4SIwe6RVSK+DnU82FkqYfuERUnYSL1bBh5top/4kdowc//tuT1KXr8P1OZeiaMGhuO6PD/PLqVnAlWwiNMPwgklaWeBGOGLkfN+d+Ib/82JzXCxAaB42XDzV8BQ0zJBYr2R5/nFuHZAtfWZBX/f19MfeGMLjx1G8jav+B+6otmdOIq8bWE++57ee9f9mNJRH8x++cWb059rYwlhG/fXRRzv04VfvHL1lQbE+a3BNjasDE5qa+PsZ7IQa9GnPxuZ0bry3T6a03extQXxgSU5Z8uzt2wXbsrufPl5NV+hmEYhmEYhmEYhmEYhmEYhmEYhmEYhmEYhmEYhmEYhmEYhmEYhmEYhmEYhmEYhmEYhmEYhmEYhmEYhmEYhmFsy/8BdQgR+soqJUEAAAAASUVORK5CYII=;" vertex="1" parent="1">
          <mxGeometry x="382.5" y="90" width="90" height="90" as="geometry" />
        </mxCell>
        <mxCell id="mlgXHm7Zvc4TcIgTKmac-7" value="&lt;div style=&quot;font-size: 15px;&quot; align=&quot;justify&quot;&gt;&lt;font style=&quot;font-size: 15px;&quot;&gt;&lt;b&gt;&lt;font style=&quot;font-size: 15px;&quot;&gt;&lt;span style=&quot;&quot;&gt;Kafka broker&lt;br&gt;&lt;/span&gt;&lt;/font&gt;&lt;/b&gt;&lt;/font&gt;&lt;/div&gt;&lt;b style=&quot;font-size: 15px;&quot;&gt;&lt;font style=&quot;font-size: 15px;&quot;&gt;&amp;nbsp;on EC2&lt;/font&gt;&lt;br&gt;&lt;/b&gt;" style="text;html=1;strokeColor=none;fillColor=none;align=center;verticalAlign=middle;whiteSpace=wrap;rounded=0;" vertex="1" parent="1">
          <mxGeometry x="195" y="40" width="155" height="20" as="geometry" />
        </mxCell>
        <mxCell id="mlgXHm7Zvc4TcIgTKmac-8" value="&lt;div style=&quot;font-size: 15px;&quot; align=&quot;justify&quot;&gt;&lt;font style=&quot;font-size: 15px;&quot;&gt;&lt;b style=&quot;&quot;&gt;Kafka consumer&lt;br&gt;&lt;/b&gt;&lt;/font&gt;&lt;/div&gt;" style="text;html=1;strokeColor=none;fillColor=none;align=center;verticalAlign=middle;whiteSpace=wrap;rounded=0;" vertex="1" parent="1">
          <mxGeometry x="350" y="60" width="155" height="20" as="geometry" />
        </mxCell>
        <mxCell id="mlgXHm7Zvc4TcIgTKmac-9" value="&lt;div style=&quot;font-size: 15px;&quot; align=&quot;justify&quot;&gt;&lt;font style=&quot;font-size: 15px;&quot;&gt;&lt;b style=&quot;&quot;&gt;Kafka producer&lt;br&gt;&lt;/b&gt;&lt;/font&gt;&lt;/div&gt;" style="text;html=1;strokeColor=none;fillColor=none;align=center;verticalAlign=middle;whiteSpace=wrap;rounded=0;" vertex="1" parent="1">
          <mxGeometry x="40" y="60" width="155" height="20" as="geometry" />
        </mxCell>
        <mxCell id="mlgXHm7Zvc4TcIgTKmac-10" value="" style="shape=image;verticalLabelPosition=bottom;labelBackgroundColor=default;verticalAlign=top;aspect=fixed;imageAspect=0;image=data:image/png,iVBORw0KGgoAAAANSUhEUgAAAOEAAADhCAMAAAAJbSJIAAAAw1BMVEX///9hYWExvIFiYmL8/PxeXl5QUFBXV1dUVFROTk5aWlpSUlL9//9nZ2f5+fltbW3q6uru7u7KysqcnJyFhYWWlpbDw8N2dna7u7vk5OTd3d2RkZGjo6O+vr75////+/+ysrLT09Msv4F+fn6tra16enrk//aLi4s2uoHZ9evv//3i//Kg28Riv5kyr36T2r7W//FCrH9/xKonwXv/9f1zzKgmsHfv//ew4NCX0bWg3Mo7roBpv5yHz7FauZIps3hWvZCoLv7eAAAI8UlEQVR4nO2ci3baOBCG5ViyjW3MLRAuCRCSAmWztN3uJttt2vT9n2pHIiQwIxsHrN3TnvlO09OmwfJI+md+SXaFYBiGYRiGYRiGYRiGYRiGYRiGYRiGYRiGYRiGYRiGYRiGYRiGYRiGYRiGYRiGYRiGqQxpfpkv5idDboat1b4cXTTqF4vLduv5+78SrWmjlsSx0sRhrX7b+r/vqFpanSRUvqe8F8Jg0fy/76oiJMzFfhjuBPdMnFxKtxNVXk8vp9fSvRyym8hTNEJPhfWBy8b7XhCGYaKmriNs1mPPGiF8N7l21boUi0TpZpVKzjM3bZh2pGzZg9tEqIK2k2bhqxu9NBOdG604ASKsx35BhF5w7aRd0QteW/GCnotGnls6j3PjM417kYOyIUUr2GumUX0bW/pBXnDbEGMHrUtR39OGHziqTFIMasUBasJO9S13Q7UXYuRE7oD087PMK7VepYlAZqKHOtZPXAlxERUk0teZGrQqjVA0E9xEMqzu+rv0azl1cL+Dq5aibCgPNRu6qIiZGATWOkFnrh9dVuasYDZ0Q9xA2K3m4ripOh5Ava6IIkv58GuVZQKohAnuQhVVKoMXRuH+XPG12R712t2IzlwVtqoaxGbk4akTVJvKDHDBKyR3WDvFjYG5hwaZRp66qGqWNkj/RQ7Kka6EWIS+Anv4zHlEFKqlWEW7VIRxw8kUzVA+8T0/3vpf+P0mJj1dhQeXok0tRq0yAeyxIPlE1V/akSIjWchI8WSaNXLd6pLYHliEm7K+/Vf4wyDAeRakeHKzIEIUoe+mUEBX4vh0PXidK1L3gY+1CDdzimLgsx0sQh/MhIMpKoWPu9KLSFeOrFI8wXsYO4p6TYVuFhWjEEeo6uhHYGlsqYrJSVJs0kLrwnHDXMHOXg8h6UqzssLz9HgpQrOkEionCzNoqxl4uFLYdxH6JB3pqnicbIwI0byBpb2TLSiwo8TZd233nYkF3UWtHbn5pjdmFJ4SSVNWHiJccYTzmcrfJfHJTR29bUPXhBXa+T0slTDJzWcDuotznBSlaKDOUm7sqHH2e/3omU2K3LlC++Mog2qzo45EmNF8RivhLmROG5v1ZimCCLGkHW2v4a7Um4UFXWkMKikZ8Zul2EyIxai52XuyOPugWezEhjYpvmkM4YcbZATt6ftkwNmTKXegK6XoYw9utm3ecHuZ6NCNkbqbIzVaCeODzh6qIjaoYNPfdJjRBouBEimk7+oDtOYzv8QHzWJ59w7hz0npPCiNHd0LELLb1QmB5LdkW16X6soB2VZVUBXLjYHUlRDP8njkZIq2iJ5UcFVmwSf1zjH+aFhSimbm4CVTPXMSocXZl15en4fEvZU9V+zRbedocGwMBVBnr+1o6RW77QSnXFVs0WYDNyLsUTsKXZmVDXEQ4Y978bsSzVIRag/lpBKSNOoXnCyn9FtTuoOa3B66VTNz8Bg23JzYX5C5UmxH8a3aTsP1gxoHaFO3FrgQoRAdMgI2EaYpDF46HutfEg8kqYobg1owIFK0yBmMq2cS2ha3RroyHaepnExgvCbwe2rC3QUMKu6m+F1BroLFNhUhVEIXtGo+dmuWroSI0vHq4bf5w0pOIFxyv1MyIn50W9RuJ8RuLVYO7Ghmy2e2SihlOr/7fb1ef/3+4eNYTtCdwF+pFI1Btd6ylGbm7AaoHFZCfGPK5uzl6u7T0+wMWD6t72AcSUrN6MNhfpRjUMGO0nOBpO8gQCNCVK8VWV7rWFZ/rD9/hghnOsr7x/mEXmpInS1UxZwxbOBmvXBxypa5HSnJkauiItQK/HP11/0mOP21PJv9/iDGY3w9y/NFSY4U9cxBqbfuYGMGIrzA4lEhdvZpOknTv+/PXpgtl7P7L+mYjs45dQ72tWIb9QWsTBNnIsRyqEu0DwsRivmnzehtIjxbzmbr9xC4nr+7cszw1bQ0ydBIvKVneqLvxK3hrvRs+UyP4T9Ps50x1F+zL+MJrolSDOnpSniDbx1ESA6uQkeVkDp728ZMKsaPOwFuRvHs02pCqqIEg0r7jEiR2lHPhQiFxY76RISbCFfr2fI1vqWOcLn+TZAxNFWRLKX214pSXJOc61MPVQEgQtLf5Jxww2S+F+GG+/epkCSdWqSowKC+2rcMPBTZY625qoQ+niz2I4pU2CMEA04WUpmlKiq1UxXNxgw6vosXDh5z1s7es9hRW0PjdPV1hgM8W89tEcLnpwG58MtaTNoqiqdcnNVLutHs5200p+n4kQR49mlsi1ADBhULPOqYUZJCLuhaOXDzbGUnxGrQldBusdL07olE+G2s3bjtxzOSKX0vWphk2XpHN63Ajlbv1nQlpI8F5J32QEEEIWq2xWKmZZhfoYd0wQkro+nw+jKM0akqpO9F1eGZCDN8WJ8rQg3U9g9P4NW2tgZc29O3cUFymNJzRaWiILFI0IkdhUhGZC0HXZl3ai5BcA+P9y/ZdAmxfn8oNFk3tmeLleXpWxUMXTyYJ7MIt51TCTfoyr56vJ9tS8bs6fu88La0FOkZvwU/mFYb2pZrbO1VwR6XXj0Bq7uvG3M6e1p/m6eW9eEr0ipFC7ELEWr6SBB+7Sp/0qVgXGAtKMX8w4818OPbR/O9Ap4N6oFR9CHPuHppq4dmaVTS2Y/nHz/OV+V+1mJQEcrZWwZkv6HERrOWon40S6RmE8pa6XeBdH34TYZo6uztSbmfSssvr9MxcDA8YXpjGJAHNPcnaXx++DpHIsXtzqmdHxSIEDGZTMhGYi5X9EGuvZnjlz75OYYdVwoiLFuSUqiM5c/cxG3Bm2+wrnHzAPeWVj3WHax8ldyI0m8s6yMLvOwtQr9XRLduDHHd7fvuMBLdWhTGcVQ7eAh2Cteh/RVUFbh8uXdLq98ZdXpOXwaHjLqwlf44KfWIwE/C8KK2OSX0TXbRi8Va5z8YwP8MGKlhNwye/8MJBbJoTLNfaADFZgNODqeji7rnN266V02TBX6pELf8omExDMMwDMMwDMMwDMMwDMMwDMMwDMMwDMMwDMMwDMMwDMMwDMMwDMMwDMMwDMMwPwn/Aq9adZRF0Ja/AAAAAElFTkSuQmCC;" vertex="1" parent="1">
          <mxGeometry x="76.5" y="286" width="86" height="86" as="geometry" />
        </mxCell>
        <mxCell id="mlgXHm7Zvc4TcIgTKmac-11" value="&lt;font style=&quot;font-size: 16px;&quot;&gt;&lt;b&gt;&lt;font style=&quot;font-size: 15px;&quot;&gt;Alphavantage API&lt;/font&gt;&lt;/b&gt;&lt;br&gt;&lt;/font&gt;" style="text;html=1;strokeColor=none;fillColor=none;align=center;verticalAlign=middle;whiteSpace=wrap;rounded=0;" vertex="1" parent="1">
          <mxGeometry x="40" y="390" width="155" height="20" as="geometry" />
        </mxCell>
        <mxCell id="mlgXHm7Zvc4TcIgTKmac-12" value="" style="endArrow=classic;html=1;rounded=0;exitX=0.5;exitY=0;exitDx=0;exitDy=0;entryX=0.5;entryY=1;entryDx=0;entryDy=0;" edge="1" parent="1" source="mlgXHm7Zvc4TcIgTKmac-10" target="mlgXHm7Zvc4TcIgTKmac-1">
          <mxGeometry width="50" height="50" relative="1" as="geometry">
            <mxPoint x="237.5" y="220" as="sourcePoint" />
            <mxPoint x="287.5" y="170" as="targetPoint" />
          </mxGeometry>
        </mxCell>
        <mxCell id="mlgXHm7Zvc4TcIgTKmac-13" value="" style="sketch=0;points=[[0,0,0],[0.25,0,0],[0.5,0,0],[0.75,0,0],[1,0,0],[0,1,0],[0.25,1,0],[0.5,1,0],[0.75,1,0],[1,1,0],[0,0.25,0],[0,0.5,0],[0,0.75,0],[1,0.25,0],[1,0.5,0],[1,0.75,0]];outlineConnect=0;fontColor=#232F3E;gradientColor=#60A337;gradientDirection=north;fillColor=#277116;strokeColor=#ffffff;dashed=0;verticalLabelPosition=bottom;verticalAlign=top;align=center;html=1;fontSize=12;fontStyle=0;aspect=fixed;shape=mxgraph.aws4.resourceIcon;resIcon=mxgraph.aws4.s3;" vertex="1" parent="1">
          <mxGeometry x="557.5" y="90" width="78" height="78" as="geometry" />
        </mxCell>
        <mxCell id="mlgXHm7Zvc4TcIgTKmac-14" value="" style="sketch=0;outlineConnect=0;fontColor=#232F3E;gradientColor=none;fillColor=#4D27AA;strokeColor=none;dashed=0;verticalLabelPosition=bottom;verticalAlign=top;align=center;html=1;fontSize=12;fontStyle=0;aspect=fixed;pointerEvents=1;shape=mxgraph.aws4.glue_crawlers;" vertex="1" parent="1">
          <mxGeometry x="557.5" y="300" width="78" height="78" as="geometry" />
        </mxCell>
        <mxCell id="mlgXHm7Zvc4TcIgTKmac-15" value="" style="sketch=0;outlineConnect=0;fontColor=#232F3E;gradientColor=none;fillColor=#4D27AA;strokeColor=none;dashed=0;verticalLabelPosition=bottom;verticalAlign=top;align=center;html=1;fontSize=12;fontStyle=0;aspect=fixed;pointerEvents=1;shape=mxgraph.aws4.glue_data_catalog;" vertex="1" parent="1">
          <mxGeometry x="391.5" y="290" width="72" height="78" as="geometry" />
        </mxCell>
        <mxCell id="mlgXHm7Zvc4TcIgTKmac-16" value="" style="sketch=0;points=[[0,0,0],[0.25,0,0],[0.5,0,0],[0.75,0,0],[1,0,0],[0,1,0],[0.25,1,0],[0.5,1,0],[0.75,1,0],[1,1,0],[0,0.25,0],[0,0.5,0],[0,0.75,0],[1,0.25,0],[1,0.5,0],[1,0.75,0]];outlineConnect=0;fontColor=#232F3E;gradientColor=#945DF2;gradientDirection=north;fillColor=#5A30B5;strokeColor=#ffffff;dashed=0;verticalLabelPosition=bottom;verticalAlign=top;align=center;html=1;fontSize=12;fontStyle=0;aspect=fixed;shape=mxgraph.aws4.resourceIcon;resIcon=mxgraph.aws4.athena;" vertex="1" parent="1">
          <mxGeometry x="233.5" y="290" width="78" height="78" as="geometry" />
        </mxCell>
        <mxCell id="mlgXHm7Zvc4TcIgTKmac-18" value="" style="endArrow=classic;html=1;rounded=0;exitX=1;exitY=0.5;exitDx=0;exitDy=0;entryX=0;entryY=0.5;entryDx=0;entryDy=0;" edge="1" parent="1">
          <mxGeometry width="50" height="50" relative="1" as="geometry">
            <mxPoint x="152.5" y="134.5" as="sourcePoint" />
            <mxPoint x="217.5" y="134.5" as="targetPoint" />
          </mxGeometry>
        </mxCell>
        <mxCell id="mlgXHm7Zvc4TcIgTKmac-20" value="" style="endArrow=classic;html=1;rounded=0;exitX=1;exitY=0.5;exitDx=0;exitDy=0;entryX=0;entryY=0.5;entryDx=0;entryDy=0;" edge="1" parent="1">
          <mxGeometry width="50" height="50" relative="1" as="geometry">
            <mxPoint x="327.5" y="134.5" as="sourcePoint" />
            <mxPoint x="392.5" y="134.5" as="targetPoint" />
          </mxGeometry>
        </mxCell>
        <mxCell id="mlgXHm7Zvc4TcIgTKmac-21" value="" style="endArrow=classic;html=1;rounded=0;exitX=1;exitY=0.5;exitDx=0;exitDy=0;" edge="1" parent="1">
          <mxGeometry width="50" height="50" relative="1" as="geometry">
            <mxPoint x="472.5" y="134.5" as="sourcePoint" />
            <mxPoint x="547.5" y="135" as="targetPoint" />
          </mxGeometry>
        </mxCell>
        <mxCell id="mlgXHm7Zvc4TcIgTKmac-22" value="" style="endArrow=classic;html=1;rounded=0;" edge="1" parent="1">
          <mxGeometry width="50" height="50" relative="1" as="geometry">
            <mxPoint x="597.5" y="180" as="sourcePoint" />
            <mxPoint x="597.5" y="290" as="targetPoint" />
          </mxGeometry>
        </mxCell>
        <mxCell id="mlgXHm7Zvc4TcIgTKmac-23" value="" style="endArrow=classic;html=1;rounded=0;" edge="1" parent="1">
          <mxGeometry width="50" height="50" relative="1" as="geometry">
            <mxPoint x="547.5" y="330" as="sourcePoint" />
            <mxPoint x="477.5" y="330" as="targetPoint" />
          </mxGeometry>
        </mxCell>
        <mxCell id="mlgXHm7Zvc4TcIgTKmac-24" value="" style="endArrow=classic;html=1;rounded=0;" edge="1" parent="1">
          <mxGeometry width="50" height="50" relative="1" as="geometry">
            <mxPoint x="382.5" y="328.5" as="sourcePoint" />
            <mxPoint x="312.5" y="328.5" as="targetPoint" />
          </mxGeometry>
        </mxCell>
        <mxCell id="mlgXHm7Zvc4TcIgTKmac-25" value="&lt;font style=&quot;font-size: 15px;&quot;&gt;&lt;b&gt;Glue Data Catalog&lt;br&gt;&lt;/b&gt;&lt;/font&gt;" style="text;html=1;strokeColor=none;fillColor=none;align=center;verticalAlign=middle;whiteSpace=wrap;rounded=0;" vertex="1" parent="1">
          <mxGeometry x="350" y="260" width="155" height="20" as="geometry" />
        </mxCell>
        <mxCell id="mlgXHm7Zvc4TcIgTKmac-26" value="&lt;font style=&quot;font-size: 15px;&quot;&gt;&lt;b&gt;Glue Crawler&lt;br&gt;&lt;/b&gt;&lt;/font&gt;" style="text;html=1;strokeColor=none;fillColor=none;align=center;verticalAlign=middle;whiteSpace=wrap;rounded=0;" vertex="1" parent="1">
          <mxGeometry x="519" y="390" width="155" height="20" as="geometry" />
        </mxCell>
        <mxCell id="mlgXHm7Zvc4TcIgTKmac-28" value="&lt;font style=&quot;font-size: 13px;&quot;&gt;&lt;b&gt;&lt;font style=&quot;font-size: 14px;&quot;&gt;&lt;font style=&quot;font-size: 15px;&quot;&gt;Athena&lt;/font&gt;&lt;/font&gt;&lt;/b&gt;&lt;/font&gt;" style="text;html=1;strokeColor=none;fillColor=none;align=center;verticalAlign=middle;whiteSpace=wrap;rounded=0;" vertex="1" parent="1">
          <mxGeometry x="195" y="260" width="155" height="20" as="geometry" />
        </mxCell>
        <mxCell id="mlgXHm7Zvc4TcIgTKmac-29" value="&lt;font style=&quot;font-size: 13px;&quot;&gt;&lt;font style=&quot;font-size: 14px;&quot;&gt;&lt;font style=&quot;font-size: 15px;&quot;&gt;&lt;b&gt;S3&lt;/b&gt;&lt;/font&gt;&lt;/font&gt;&lt;/font&gt;" style="text;html=1;strokeColor=none;fillColor=none;align=center;verticalAlign=middle;whiteSpace=wrap;rounded=0;" vertex="1" parent="1">
          <mxGeometry x="519" y="60" width="155" height="20" as="geometry" />
        </mxCell>
        <mxCell id="mlgXHm7Zvc4TcIgTKmac-32" value="" style="group" vertex="1" connectable="0" parent="1">
          <mxGeometry x="227.5" y="70" width="95" height="130" as="geometry" />
        </mxCell>
        <mxCell id="mlgXHm7Zvc4TcIgTKmac-5" value="" style="rounded=1;whiteSpace=wrap;html=1;" vertex="1" parent="mlgXHm7Zvc4TcIgTKmac-32">
          <mxGeometry width="95" height="130" as="geometry" />
        </mxCell>
        <mxCell id="mlgXHm7Zvc4TcIgTKmac-31" value="" style="group" vertex="1" connectable="0" parent="mlgXHm7Zvc4TcIgTKmac-32">
          <mxGeometry x="10" y="20" width="76.5" height="93" as="geometry" />
        </mxCell>
        <mxCell id="mlgXHm7Zvc4TcIgTKmac-30" value="" style="outlineConnect=0;dashed=0;verticalLabelPosition=bottom;verticalAlign=top;align=center;html=1;shape=mxgraph.aws3.ec2;fillColor=#F58534;gradientColor=none;" vertex="1" parent="mlgXHm7Zvc4TcIgTKmac-31">
          <mxGeometry width="76.5" height="93" as="geometry" />
        </mxCell>
        <mxCell id="mlgXHm7Zvc4TcIgTKmac-3" value="" style="shape=image;verticalLabelPosition=bottom;labelBackgroundColor=default;verticalAlign=top;aspect=fixed;imageAspect=0;image=data:image/png,iVBORw0KGgoAAAANSUhEUgAAAgAAAAIACAMAAADDpiTIAAADAFBMVEUAAAAAAAAAAAAAAAAAAAAAAAAAAAAAAAAAAAAAAAAAAAAAAAAAAAAAAAAAAAAAAAAAAAAAAAAAAAAAAAAAAAAAAAAAAAAAAAAAAAAAAAAAAAAAAAAAAAAAAAAAAAAAAAAAAAAAAAAAAAAAAAAAAAAAAAAAAAAAAAAAAAAAAAAAAAAAAAAAAAAAAAAAAAAAAAAAAAAAAAAAAAAAAAAAAAAAAAAAAAAAAAAAAAAAAAAAAAAAAAAAAAAAAAAAAAAAAAAAAAAAAAAAAAAAAAAAAAAAAAAAAAAAAAAAAAAAAAAAAAAAAAAAAAAAAAAAAAAAAAAAAAAAAAAAAAAAAAAAAAAAAAAAAAAAAAAAAAAAAAAAAAAAAAAAAAAAAAAAAAAAAAAAAAAAAAAAAAAAAAAAAAAAAAAAAAAAAAAAAAAAAAAAAAAAAAAAAAAAAAAAAAAAAAAAAAAAAAAAAAAAAAAAAAAAAAAAAAAAAAAAAAAAAAAAAAAAAAAAAAAAAAAAAAAAAAAAAAAAAAAAAAAAAAAAAAAAAAAAAAAAAAAAAAAAAAAAAAAAAAAAAAAAAAAAAAAAAAAAAAAAAAAAAAAAAAAAAAAAAAAAAAAAAAAAAAAAAAAAAAAAAAAAAAAAAAAAAAAAAAAAAAAAAAAAAAAAAAAAAAAAAAAAAAAAAAAAAAAAAAAAAAAAAAAAAAAAAAAAAAAAAAAAAAAAAAAAAAAAAAAAAAAAAAAAAAAAAAAAAAAAAAAAAAAAAAAAAAAAAAAAAAAAAAAAAAAAAAAAAAAAAAAAAAAAAAAAAAAAAAAAAAAAAAAAAAAAAAAAAAAAAAAAAAAAAAAAAAAAAAAAAAAAAAAAAAAAAAAAAAAAAAAAAAAAAAAAAAAAAAAAAAAAAAAAAAAAAAAAAAAAAAAAAAAAAAAAAAAAAAAAAAAAAAAAAAAAAAAAAAAAAAAAAAAAAAAAAAAAAAAAAAAAAAAAAAAAAAAAAAAAAAAAAAAAAAAAAAAAAAAAAAAAAAAAAAAAAAAAAAAAAACzMPSIAAAA/3RSTlMAAREfKjVEUkxBMyUZDQY2XYSq0PbrxZ13USYDs/Hpb0+s8uKRNCuI14AiBFzT/bY9XtnETWzkzUrKIQhZ7Dn7ArwY8/75V4lym7CXhmtgVfok6hsHwZNHDuYPlIwy/C/H+NKrlXl/irnfw2ExDEhf3W0UMI/wThB97WZQqBI+41bI92m4mOiQQkCf2C31LhV+aN6vVMJY1QvcYkN2HaTAu8t7CjocZCmylnwTIK5LKIV057Q/khamBcxJW3FGnvSxo26lgdTgCXBjGoKON7rhoe9zz3WnJ5mL1mfbF+XGnDvaosksWrdqU+7OeHqg0R6DRYdlqb84tb69ja0jPJo5LvvoAAAhsElEQVR42u2dd2AVRdfGc0GKIEFCEQhNegiEIr14r5AACkqkEzAQikpTOgakRSkS4AUbEeUVCApIkyK9g4CgFBEBRV9EkRc/FQFF/UT3S+ATc5N7z5mZnb3nbvb8/s8zO+c52bs7O3NOSAjDMAzDMAzDMAzDMAzDMAzDMAzDMAzDMAzDMAzDMAzDMAzDMAzDMAzDMAzDMAzDMAzDMAzDMAzDMAzDMAzDMIw5XDly3pErd568d+bLf1cB6othAklowbsLhRUuYmSgaLF7ipcoSX1hjPWE5yteqrThhzJhZfNRXyBjIaHl7i1vIFSoWIn6MhlrqFylDOb+LapGVKO+VkY3kdVriLl/k6iatagvmNFJaO06Evbf5L66LuqrZjQRWa++rP3pNGhIfeGMFio1UrE/nVKNqa+dMU2OilGq/htGkYgm1NfPmKNpM3X706lzP/UMGBM0qWjO/jTcER7qWTCqlCxs2v80HmhOPQ9GjaYtdPhvGPVrUc+EUaFstB7/DSOmJfVcGGlcrXTZn0Z0a+rpMJKEP6jR/zSq8LqgrYh8SK//htGGM8BGuO7R7b9htKWeFCOOzt//2/BzgG142Ar/jehHqOfFiNHOxOo/RGxu6pkxIjxa2rzXvmnfgXpuDE7HBlb5bxidIqlnx6B0ts5/wyhEPTsGo4S2BWBfRHWhnh8D07Wblf4bRrc46hkyIN2t9d8welDPkIF4LN7qBHD3pJ4j4x9PLwkrE3r36Vul3+NPPPhkf5nnhgH8USB4GSjqYkzN1oM8//zd4Kda9RbOgKepZ8n4I3KImIW9hw7L+sfDR4wU++shvBgQrFQXMrDRKD838dHPJAoJ1KaeJ+Mbl8jxv8QxwG+42CGCqh7qmTI+GStg3rPjYI3xEwREJlLPlPHJJNS5pOdQkWHP4wlQmHqmjC/uQI0bWUtAJnwyngG5qOfK+KAKZtuU4UI6rrZoAnSmniuTFU8FxLXSg0SlpmIJ0CyUerZMFqYhpiW8ICzluRfLgHLUs2WyMB3xbKiE1uBkROxe6tkymXEVhS0rJbWEPyMJVpvZkXq+TCZmwY4l/ktObjZyCxhPPV8mE2Vhw+ZIyjV5EdaLoJ4vk4mXQL96h8vqvQwnwCvU82W88cClYF6VF5wLCsakUM+Y8QJ+BHhN+gYQEjIPvgW8Tj1jxouWoFtvKCg2gbcH1KOeMeMF+NQeNV9FEl5Y4NXg4OLfkFlvKkl2ARNgAfWMGS8WQmYtUpJMTYA0K1DPmPEC/MFerKY5ANKMHkw9ZSYDcZBXsYrf7uAyE3dQz5nJwFuQVcmKom+DCcCLwcHEEsiqpYqi48EEKEE9ZyYDuSCrlimKNgYTgM+HBBPgbpBWiqLDwAQYQz1nJgOjIKueURTtCCYALwUGE+CRgHcURUM5AWwDuGpXRVF0OZgAA6nnzGSgFmRVd0XRFWACTKSeM5OBfJBVKxVFF4MJsIp6zkwGVkNWzVUUfRpMgDup58xkYDRkVYLCdpB03gUTYDX1nJmMgNVBFdtBPwBpRqdST5nJCFgaYI2SZOhMSHMt9YwZL9ZBZj2vJLke/AWYRD1jxov3ILPcG1Qkl4EJsJF6xowXcH0wmXOBf7MJPmvG7SOCC3hbeA2F2n4TQUWjFvWMGS/CwSc2o6684mZQMJ4PhgQZcI3QSdK3gC3wDaA39XyZTCB9orZKykUilUMrUs+XycQLsGFTJMu8b4PljO3U82UysQkp9LpDSg3rO7SzCfV8mcysRP5n75bQQvsO7aKeLZOFRxDPWjwmroU2Hp5HPVsmC4NbIKa1LykqhdWHMXYWoJ4tk5XdmG1DGosJ7UH7R0zXdMmuFduHvrd31wObk4fU2fzAro2dyz5VTfHbNROSG7PN6DZDRGcfqqNlGbDD3dMLF/GhnfD+7nmCmcp44dmPGjcyD6qSgt5IDCPZbNeYAy+3qQOOsH/61q7U8bQfB3Hroqci72+V38dFjA9MXaZr/T0izW2LbNzCrUnkGCzS8OO1pwCF1LYxAhITzFQKPnS4v8AQt1j74aPUMbUXh4XCuu4jP38eOgb/EUmnrPoVNp6cIDTE38RvFHpsYW6xYadYWI+87OOHoEPxo2J/XUZ5N+CSY24p+9OJ3vWR6nAO5HHRsB7fsfWuDH/n6tl6gXDLSdVToeMmizQk8kHYW9RxtQ0p9SXiuv9I535DB475+PHpk45L/NkJtRd118D2avan0eKTTdSRtQvYerAG1CqDzLrP1KBzxZsdOBtPI6v9P6lyWa6DIm8XENFV+J1QiCVJJiON0F5lg3FcmIaRG/HyoBD9rE0AfCkxK5UEO9oijGxHHVtbEGnpj4DKV6APYjUNHs1NCkT4VGSdVZE6khvL0ukn05se4RR/KhRglMaIe1O+svTFuE5rvYKHDlBH1w7gjR/ViBolfSmb9mq+hldGU0fXBoQLtP9VQb7YlOdZ7RdRjI+l46QWs8L/vvIXgrYgVWAdrwriLD+jP/C7PdKXge4tVOLf8hfiPOZjjYSlWSm/EveZJf4bRg/q6NqBxp/rDfpJ+U0gdwp/X5SFyxQLcPaEzpB390hfwIYvrPLf2Cn/OupAcnypLeDRCj1nPEcs898w5vLhdAE6/kdTuFu0VBj9GQv95wI1gtTTsgqfrNIc5pxlDwC3aEodW3tQS8PvcB+VDfqbapgfGGQtrwgKEXfKZKCPq+0AXGOx/4bxHnVo7UJDUzeBUoeUBn0LO6hqnqiC1JG1C8OWuVWD/NVYxTH7SAxSetL52UM/aDdv6Oxjk2S+ZH/toY6sbfhG7Y0ssazqCaDxokNED1iTK+Mn/vCCxYsJf8y+QB1XG9Gwl2hUb3O8bQ7l4QQTbsrsFT7++NHDRcX+/H0PdVjtxAvfStl/dJuJEhC5hIaof9Hf5o6Ug2uFFP5LHVR7MbzvJUH342u2NPXJ9SGBMWJaQb2H494TWUb4zuwpdafRpOWTAmE90/ouc8PMEPgVPzMLESkospOYu9bIMkwgqqY3X0/HxziGr+XH3YvLLKCOp+0IRAKklEeHEOpj52qF6kTNpw6o3QhEAlRHRxAtXv8/qFJx6oDajUAkAPoO+L2wFLq9WbUfmmMJQAJ0wJ7fJfaWun7ALjYfdURtRgASAPsM9LXM8uKBHxG109QRtRkBSADkF6C03BnfT3fCcieoI2ozrE+AUMSxPZJ6xWG5qGHUIbUX1icA8h3oO9nTnZuQuoW8HCyF9QmAlKl6SlowLyyocFzJyVifAJ1A7Qbygi54e3tV6pDaC8sTwFME1H5VQbIpqBjNG8RlsDwBVoDSI1VO9zeBa9gNp46prbA8AbqA0pOVNOF9rSpnFpyL5QmwB5TeoqS5HdR8nDqmtsLyBOgLKbvVdhmlgvWl+YyQDJYnwAJIuZei6CuQ6GbqmNoKyxMA7Dd6SlG0MyQ6gTqmtsLyBHgRUlbtOF8PEi1CHVNbYXkCgBXByymKwq8WXDhOAssTAHxeU6szjm0zVz++4ECsToBIUFmidakXq0HVs9RBtRNWJ8BoUHmJouplUJU3hkpgdQKk8h0guLE6AVzghkDVZ4CC4PXyM4AElj8Egh9uyimK8luANixPgAmQ8seKokMh0ZnUMbUVlidAVUjZkpXAo9QxtRWWJwBYm7CXougASHQhdUxtRU+BBOh82cQAYHn42MFKmilgx7G91DG1DZ772wrWbjvxU0GP4iDwYS75LaHpwPsBZlPH1R54rkyXatxZ/+pqpXGugaptlDQng5q8I0iAQ4vAr3S+6TVHoRZjblAysaPCxYcmgpo9qYMb9Lga7nLL259Oi6nSvRqrwYoqxzheBhWjuIMMjCvPd2ru3yT+Z8lyjKuQu4rCDL4GFfmAOIinbgMT9t9kgcQKfn60Rax8D+grsCBXjIVYpaN1UNTeamKjxfXAO0QXky3s5VkIC5agjnEQU22pBvvTiZkqUDA8/FoZEa1HJCeB9B2K509B/jgQobGP+Bfo09t6wQ41Zf4lNYtD8CsA7wn2yzSFFz+IUjmh0VaIV4euKfMjEP4LonaVOs5BSujpKL3+p70TDvQ7WkohmZuNTGWvw5gYVm/Soaw2/ezvi3t9/9662h2Vkom+W3geW7Gao1whxicXiwg5Ic2L130Mdn2SrEzC64LzyIu2PFI9aZCtCd1hjf1pxM7JPFiH3Qq96pPKCU3kAuq/uzl1sIOQ5W9a5n8aU71q/Bx4Z6eSivszfB6uNfhjzK/UwQ5CHk220n/DeDLun7Hqqr9p7Ma2BnRFFxXTEP0tcRB3HheImyl6/33bHdTJjEydaeA8VvUX0PiSOtrBx3aLHv8yktwhfaQND5p90dy7wu808guUik+jIXW4g44tGhf//PNazpDQNSPN68Tu8L3p5JvdYl1HG3DDkEysShAKnGn2D/xKk9KXz2V+ju9Qr5HoH/N3oEzUxT/GBSFzO18b3zy9gHTH5uuvdZf4fPkb3wC8uR6A33/LiLkkm70xqkdNsysrplCbGFjepQ54kNHV6nbdQcZRrhDqxabfqR0JLNH8CujNMmpHAsz/Ugc8yMhDbUiAkeo74wDmJ5qPqZ24tMJ8zLITkfdROxJYorllrDc/KYXx0qRjIwoVn7OnX5W+f7wfoDVEPWyjDniQUUls6TwDMa9ETPPenRt+o90yiz8ka4M3gnoTvlAufkVO5vVznu7QxV7U5grwH14C9uaiVPgavB0HiZUsVJTaYISVsn3HsjtnL0lE77666L9PStkJ1B5D/NGEOuDBxm7x4BVeL6TYcY/l24qUGeGhjnewUVB4V27pg5Gios1V9vr6ptmcjfrsj15DHe7go6Zo8GoekpGdNkGLY/HLxoW4FunKpqSt1NEOPq4Lxs4d4ZETXr5Og2MLP7qptaq0Fv+TuUNcVp4Xi92ExdLKrjeklxcysbb230+cPXUsMfygVmQue7NYLHZnlEqqlzC1xTT2wwxFBQ6MMLuHuEVt6lgHJd8KBa/XcjX19Sa2/v5e2Vtr/BBT/v9hpnpl9uWG0P/VL8qbZ4bLrDFkpMLELFqDe6h/b6iznTrSQUoVkeidiFMf4E+ljaYJbX2m3Iq9ar8D5fvx13/fhIrsA33N1AnaUW55w37N70/tsQXyas1mj6OOc9AyUSB+I/ObG6OewBheDBkFyT02Xe6H4IvW/OzvnwcEImiq+Hs6Iqd0/2HmbGytfsM79UXF3DUvqNSWdQwdBFbY+poeJe41Cf//yCmgGD6+YgUBrYVluR0UzBw8iDU0fDsT329S9YqopuujqwOgVYa1G6/doA5v8IMvAkTX0jFORTH7y38i97Aeen1bWO+dWb1/86+LfOpLhK7449R0LQPFdROwP3qv1Mem22y4fuHjd6r0vSfs5Km+hw9eqCRQk5S5RTvUlEtyVTn9shX3v4JqT0BGmX+jrszWNJKrNzrUd9TRcCDo21RpbYWUm6IJEMOLdYFmPmqKvu3T4XXQwWZQx8NxvIxZEqvxNXoMmgDVqePhOE5jluzSOFgc+lGoFXU8HMcAzJKXdY72LDbaH9TxcBqRMxFHLmldRl+FJcCP1AFxGjcwR45pHW4Ttq9zJx/YCixXsAR4Wu946Cbhu6gj4jDQ53LNm+haY+PdTx0Rh3EV8eNzzeMNwhKA63YGFuyxXHdXdQ/2IijQAoDRCFZR9xndA2LfA7QPyIDsR/yYqHtArDFcZ+qIOIz2iB/az9EVCvBvDgODrQNp30uNvXaspI6Is3BhG0I36R4R+yTMDZwCSgpiR5L2EbHF4N+pQ+IsNiB2FNU+4nhkxGLUIXEWbyF21Nc+YkFkxEbUIXEWyxE7LmkfcRoy4ivUIXEWTRA73NpHLIeMeIQ6JA4DO66jvZxedWTAXdQRcRjlET+0t1XGjgn/TB0Rh7EW8eOc7gFHIAPuoI6Iw/gc8WOe7gFrIgO2pY6Iw3gT8UP7Ll2sU/jD1BFxGDsQP5ZqHi8Ve+rMQx0RhzEb8SPRo3c8dA/ideqIOAzsrcwYpHe8tth4Hagj4jDOYYZ8rHe8SdgdhzogTuMQlgDPax0uhxsZrhN1QBwHViPQrXUp6DMs396jjofjKIVZUlbnaGhnwmvU8XAcizBLGmgc7AZakS4fdTwcR27MEuMxfYOh7wC63zoZlK5o5eU+2saKQ7tI8enwwPM+ZkqUtnJ7z6B3m4vU0XAg2Oc5wzivaaTBzdChVlNHw4G8gLoS9ZGekVqhIxm/zaIOh/OITERtWejRMdAdMXgCGO73VI+ieJZXm1Ewd8PclVbPz8FVJmQ4j9ui46fZ9ZuA/2k0e062q++B8fVGlDqTseJtbJ2lp6+tH00dWZuAFoozjOMrzA9zTcz/NAq/IK46bmyPL2P96MRvPt2wAHV0bcBggYY+k0wfEZsh0zYoTKRfQJr7A2vGIkruYns0VTrOxgj8Bhj/a3KMwVUl/DeMIvtSMcXIiaj7t4gtNZFbhYP8KRDFaHM9Yzw/S/mfRoWW4JPcuOIi3UL+5vgT2nc3ZyvQtaA0EiR+mLOCLzZkpZP/2gTz22DH2jOT1FfDY0y2ZY9ICEubqBXxhoL/aQ9xk4f5VIu7qtKGMPYHsQcLJ5JDKKBTlBdpHlZt/H6pbNaHz9CD+IKib2Z+z8Xo/XBKKIDHFdt5HFY0LJ25mRtI5RL5vfJHsnA7KoexQmSRLu2HdKyCdvhfJhxL46GMfb86tnWbU3uW+4f6ROwWYEQdll2lC7nrF3OOpT1+Xr3d9TOfmX//WxzlUqS+uCx2CzCMNyWbet0p0ioMo9sYz02x6ko9qDPhjvBQRzsYmSwavzItJVQH91Br9J2FXrlCQjZ116Nl1FxOHe0g5HKScPwWfCoq+vIETZal/fjsmNVJm1hVfiHMyuPi8UvoIbSudv2INsd0U/8b6nAHHx2TJQIYcx5tyfsnut+cEtU32uxMF6kIxqwcC6yqnC3bgNpihKQt1PEOPrAyzplptqyczy0XN66tc1P7izNzMXW8g463sH4+WYlvdPqR6/8srbhyXqk3/Si1tYIkVqYOeNAh0NzZJ+2/2vz70m8HnBii4zU9cNTnd4HM/EDtSWBJ5k2DmUiReRPIBizl3cOZeCzBfFTthNaTz9mCodSWBJaYgtQBDzr6UnsSWPrnoA54sBG+i9qTwPIgdcCDjgInqD0JKNG8HpSZQzL7re1Pb+1dkWzPEqyAdLAS33/zmwve3LwfK0bqzUHqeAcfq3Xs4hFg7tjvtGklt3l1yd9fp0IrNz2FFcH+h9LcrzwLn34RCP8bDAvxXCujQ6nCu1mLmFRuVV/wrz+kDncQkn+C9f43uvkRaXCE6bWn92tH+pyEp53YecSZG6jDHYQ0nmu1/0f+3ur7aU1TOlPu9r+e67kmdIaEWxT4IO5ba/1fluG/dlUddZ1T8AedYbsFNErzapAPwitaaL/buy1E6Mcj1XRG4meWHxE4Rsot630yx22V/5eynNA6+6DK/vH+JQWmMQt/ot3voY51cFLwK2v8n1TNx2CDXpHWmfuW0DRy4h+5TR19z8YUsGKHSHyE74d2V1PJJcjkYYLTuAvrU8Styvwy8ZJu//fX8jtY6j6ZPWUSO7ryt0e0SqMFaRzLfL3b+90fDoZGyxkmrCT1KX88tjp8gTrOQUzuM/r8P5ELG2296MfIbVKTwHpjPUsd5WCm4yLZgjx+aF9P4HB5+GdFRbR+kdvO5/kSlivDuwMhLh9zm7e/fIRg0cbRU/Hyb7F3SE5hOPIjMIM6xkFOtQdFCwj4IWmqRL3GJc9jcvIfcJC9brw9FONyX/ED5Flov0/yg0tduLVEknzZvw7wR6dd1PG1AWc/UTw2cOaadKVOF3xMbZnC5cNVcC5RR9ce1PpB+nnwUptzCg9Y1WBRlWN9lWFJydI3jiWudpjEh5udK/N0VBqmBCir1sgMPrF+J3Vk7cOmaT2Evt/WGbFdzf0QrLRoayXN1qDmHOqw2ophAv6/bWaANqC02jvbHaDmCOqY2gqRBDBVXhx8D2yvtmrjAnc716SOqa2wPAEKQ8q7FEXBEihVqWNqKyxPAHATRxVF0Z8g0aLUMbUVlicAuOj0gaIoWAEl3kMdVDthdQJsApW3K6rWAlW7UgfVTlidACmgsmq55+Ggquj+IibE+gTIASqrlvm8AaryUqAEVidAHKisWt+tMagqtsOUuYnVCRAO9phRbWU8C7xebi8ogeVvATsh5dyKoufA642jDqqdsDwBwEW7uxVFJ0KiUZGKqo7E8gQAj/cfVhR9BhJNpI6prbA8AcDKEWGKouBB0a+oY2orLE+AdZByBUXRIZDoA9QxtRWWJ0APULqakuZlULM7dUxtheUJcA2UHmOB5h7qmNoKyxNgPCj9u5Lmb6Cm6gcGZ2J5ApwFpaPmK0h2gI+GcPMAGSxPgJBEUHufgiLcwXimhzqmtsL6BFgKaicKnjLLQAH4oPsR6pDaC+sT4CAsvkZasB8s2I86pPbC+gSAv93Ll/dsjpxmUP3A5FCsTwAPckh8uqTeRiSh+EuAFNYnANbFMLqhlNp/kYstRR1RmxGABHgEkS/aQUJsxXFEjc8FyRGABCiAHUMtdkBcC2tkmzBOWItJJwAJELIXG6CU6O/2JrTexB/UAbUbgUgAvJn1MbEMCMWbIo+lDqjdCEQCePB6/6VEfgVS8LLXicqnmJ3KWTSmhtHS7CBX8TEm4Sv4+X/EZSpSx9Nm9Bwh0ucjKayuuX5MzQWKEiWWQ0ReFWiJHnuZOqJ24sBz4o1+2k+9YWao7iJj9IH2868QqnN6D3VMbcToflOE7U8nPgytDeqfnHi9wDRaFPJ3qOvsE0IVjeLzU0fVNhQoJHBDzcwv15XH2yE2QoupPX38caXuggWt9lKH1S54PlBrKBj9c2PFEfMLV6f8MWJ8aIY/7PjCT++L/qlbtuioUzmn3uQv4QnFcuwCLwK3KdLgZMTBt9t9cDDi5HcyZee5OJAQTarI9ePMxIvTlEZNRVs9mGYtHwkTYVZhk3GOPiW/iSeNsZYnwKvUobUF29zmI52sdKp7nfmBQfg8iACp6HcZIXaq/LPlxD7kmqM8vwLiNDZ7+7/NVIV9NyWizY/rn6bUwbUBlUWbMAuwVPwb/m2sbGA5mTq4NiCXUPtdUSYtl76ATV+aH9YPNRTy0Wls36k35r1lt/OGhFTT3rru/yn9KXV0g5/7NftvGHXOSl/ER9ov4iYxV6SvxHHMsOCfr7B8r+5Vbgv8jzK7Y8UB3FBb/Ef4MkX6Qqpb8CrA58FRRlvUPLqPfLn34tovIoI6usGP6w9r/DeMRfIXU0+lvbx/otl/nGfMx9kPUXnlryaPia51WYi/Rh1cG3BF7/+cFyMVtoptb6Ft+JkKCeg4Rk+wzn/DGCDQRTgzuXRdUTfVcuOO4gcr/TeMNxQuadivWob+TX4tyoHktdZ/I2GWwkW5ygptEwWJj1C4+TiPFI1fgHzztUfluv6sYHLY+i9Qh9Ye7LPaf8N4ROnCUiPMtDGPOsUbwIToINEiuP/PP13IneuOnue6zBnxZHnxv+umtEcsJOSbTsr+F+upNqTzEH0CjPr9be+yrZH37xPex3lV8eJctdV+n7rNU2s46UCWiC0BXPrJ16E61/iXxFbuk5SfxjvOkd8tfPRh6R72zuUekYiW/95vo7UZLwl58oT6FW56OlnK/s/nhaoP5jg6iDxn9QFr9OTtL5JCZgqzeFY9K3r8I6lPXX71k6EHHtPy2G7KwRtxEWO2ueuMq71A4Mdmc1nuCChH6kg0qDVK4jIX3ahMe9P35Q61fzgKDDDh2NMqdaUdzgXUuGJCm3rq4rfo/+q43kfHTP6tWxbptb+c+kwgTZmsoDW1Fgge9VyPrib8qu2iu1bauq1Qm3vCwsJ2TH63dfVcvOCjzCHsFOjCwaJS6F6+eL5BBx8fI6a9KNFi82HsFvAJ9WyZLMCdVYxYqY/p2LtAJ+rZMpkpgCwCyP3Pjt4Pq7nl94gz1lICdqy35PnOcsgtwHQ1QUYzp0C/oqV3U9WEE+A89XyZTNQA/eojrTcDXqx7kXq+jDepbtCvfPKKSK3GDdQzZrxYDLq1QEGxFpwAW6hnzHixB3RLqaAGfMDsceoZM148CJlVXqncH9yx8SXqGTNeLIDMOqkk2RNMgBPUM2a8AO/Xal27XWAHuEvUM2Yy4gKPYCp+Xl0J3gL4u10wAbYCKa+4qxY+ZqxyRIixim8gqzYrirYEE+B16jkzGcgFWaX2DBgS8hiYAKOo58xkYD1klWpvpflgAnC15mBiC2TVu4qio8EE+IB6zkwG8kBWfa8oGgkmwFDqOTMZAMsCqBZWSgUT4GHqOTMZAJ8BTiuKwm0m36aeM5MB8IH9L0XR/GAC3E09ZyYDJSGrjiiKbgcTgCt2BRN3QVYdVRStByaAeltBRj8pkFVRijU94Baw3LQlqADbQj+lpgn273ab6zDNaOYVyKxWSpLjwHojdahnzHgB7gjqrSTZFPwFWEo9Y8aLN0C3lD7dwq3/VBcXGGuAT/L0UFAcBlf35HWg4KIa6FaiwnvAO6Ci8RH1jBlvjoJ2rZHWS20PCpbnl4Ag4zzo11rpW8Aa+Aawjnq+TCYGwobJPgWcRSpOtaaeL5OJFbBhsd/Iye2G5Yzh1PNlMoNUYe0t1W61HeJ/UQ/1dJnMYGUiT0loNcaav8uIMYFhOOKZsU1YqivaeP4c9WyZrPRGTIsSLevS8RfM/yFcwD0IQbt0uucJ6aR8iwlx+86g5C20W0DUQQGZYZNQ/6MfpZ4r44ulqHPGbrRa6PWjuIrqHjPGWu7HrTPOwDu5NhUX6TmwnnqmjG/Qh7f0n4G/lvsXqFVDQMEYQD1Pxg/bRewzWlT00/Tn/lJiTYO6UM+T8cdCIQONIhu3ZOnFMu5h/OHvFo2oZ8n4pYugh4bR7N6L+W5/ITz0+r4B4s1dr1DPkvHPSmEb06m/+bel3w4oXFrqj36mniMDMH+nlJkKlO9g/ioZ61hkdQLwRoDgpmMda/2vIVl2ngk0ucx06UZJGkQ9PwbjDfM2++cz6tkxKC6BTwKq8BuAHfjXF1b5/3lX81fHWE+tJPNe+6I0Fwe1CaOwHpJKxPASoG2YY4H/Ue2oZ8WI867+BNhDPSdGAlcb3f4vop4SIwe6RVSK+DnU82FkqYfuERUnYSL1bBh5top/4kdowc//tuT1KXr8P1OZeiaMGhuO6PD/PLqVnAlWwiNMPwgklaWeBGOGLkfN+d+Ib/82JzXCxAaB42XDzV8BQ0zJBYr2R5/nFuHZAtfWZBX/f19MfeGMLjx1G8jav+B+6otmdOIq8bWE++57ee9f9mNJRH8x++cWb059rYwlhG/fXRRzv04VfvHL1lQbE+a3BNjasDE5qa+PsZ7IQa9GnPxuZ0bry3T6a03extQXxgSU5Z8uzt2wXbsrufPl5NV+hmEYhmEYhmEYhmEYhmEYhmEYhmEYhmEYhmEYhmEYhmEYhmEYhmEYhmEYhmEYhmEYhmEYhmEYhmEYhmEYhmFsy/8BdQgR+soqJUEAAAAASUVORK5CYII=;" vertex="1" parent="mlgXHm7Zvc4TcIgTKmac-31">
          <mxGeometry x="9" y="16.5" width="60" height="60" as="geometry" />
        </mxCell>
      </root>
    </mxGraphModel>
  </diagram>
</mxfile>
